<?xml version="1.0" encoding="UTF-8"?>
<svg id="Layer_1" xmlns="http://www.w3.org/2000/svg" version="1.1" viewBox="0 0 1004.17 458.38">
  <!-- Generator: Adobe Illustrator 29.6.0, SVG Export Plug-In . SVG Version: 2.1.1 Build 207)  -->
  <defs>
    <style>
      .st0 {
        fill: none;
        stroke: #000;
        stroke-miterlimit: 10;
      }
    </style>
  </defs>
  <path class="st0" d="M934.71,297.51c18.23-2.43,60.23-36.35,65.19-54.78,6.39-23.76-1.24-38.45-18.46-53.29-25.66-22.12-69.69-38.56-115.76-50.59,27.26-18.53,60.38-39.64,92.82-60.01,26.32-17.41,38.05-26.04,42.19-30.01-1.95.58-3.84,1.14-5.51,1.65-6.83,2.06-14.43,4.4-21.89,6.67-43.12,13.13-81.91,26.09-115.47,38.78-8.02,3.03-15.87,6.09-23.36,9.11-7.56,3.05-13.45,4.51-16.41,3.95-.05-.01-.11-.02-.16-.03-2.89-.65-2.43-3.36,1.44-7.36,11.13-11.43,20.26-21.32,25.73-29.29-2.57,1.92-5.27,4-8.1,6.24-.17.14-.35.28-.53.42-6.59,5.13-13.09,10.43-19.63,16.02-9.92,8.47-19.39,17.15-28.05,25.65-.53.52-1.1,1.05-1.68,1.58-18.32-3.13-35.29-5.59-49.65-7.47-1.24-.16-2.49-.31-3.73-.47,5.16-9.1,9.48-17.83,11.48-24.65,2.95-11.95.02-17.98-3.53-24.36-1.21-2.19-2.49-4.46-3.6-7-.6-1.07-1.19-2.14-1.79-3.2-1.49-2.67-3.37-5.88-5.36-8.31-9.34,11.31-21.62,29.39-30.63,48.2,0,0-.39.84-.41.89-2.49,5.37-4.19,9.93-5.36,13.88-15.61-1.61-31.44-3.02-47.41-4.23,5.92-18.6,9.08-34.18,5.64-42.74-.02-.04-.03-.09-.05-.13-1.72-4.88-4.48-7.55-8.01-7.87-7.38-.69-21.04,9.83-38.12,27.37-3.1,3.2-6.2,6.51-9.27,9.85-3.61,3.93-7.13,6.07-9.83,5.89-.34-.02-.66-.08-.98-.18-2.77-.87-4.03-4.66-3.27-10.07.57-3.99.97-7.62,1.16-10.8,0-.08.01-.15.02-.23.32-4.39.27-7.62.04-9.93-4.74,9.17-9.23,21.99-12.91,34.65-17.31-.61-34.71-1-52.13-1.16,1.05-9.9,2.05-20.37,2.97-31.22.73-9.51.75-14.9.58-17.87-1.78,1.39-4.02,3.4-5.8,5.04-2.19,2-4.61,4.28-7.1,6.48-12.03,11.15-24,23.03-35.44,35.32-.74.79-1.46,1.58-2.19,2.37-5.79.08-11.59.19-17.37.32-.72-2.03-1.27-4.32-1.58-6.78-1.33-10.74-3.01-18.91-5.08-24.95-.02-.06-.26-.77-.28-.82-.97,3.33-2.02,8.8-2.5,17.06,0,.07,0,.15-.01.22-.32,4.97-.45,10.3-.49,15.54-28.61.81-57.03,2.23-85,4.28-1.13-4.44-2.41-8.67-3.82-12.51-.56-1.53-1.06-2.8-1.51-3.86-.71.6-1.61,1.5-2.71,2.84-.78.96-1.8,1.47-2.98,1.55-1.86.12-4.14-.84-6.63-2.83-4.06-3.26-8.18-8.83-10.93-14.78-2.1-4.57-3.93-7.98-5.4-10.48-.14.78-.26,1.71-.34,2.84-.43,8.4,2.58,22.32,7.02,39.45-19.85,1.76-39.42,3.84-58.62,6.24-2.19-2.12-3.98-2.33-10.44-2.22-.22,0-.44,0-.66.01-3.51.06-9.07-3.29-14.92-8.65-5.82-5.37-11.01-11.89-13.07-16.98-1.05-2.62-2.03-5.17-2.99-7.64-1.11-2.87-2.28-5.84-3.61-8.91-.03-.08-.07-.16-.1-.23-4.94-11.82-12.76-27.17-25.65-48.53-.04-.06-.07-.12-.11-.18-3.48-5.89-6.45-10.64-8.95-14.47-.12.02-.24.03-.36.05-6.34.75-13.23.04-19.88-.83-1.65-.22-3.51-.64-5.54-1.26-1.22-.37-2.44-.76-3.66-1.13-1.59-.49-3.63-1.12-4.92-1.47-.54,1.44.67,8.33,19.91,36.97,11.38,16.23,23.34,31.04,34.09,43.07.11.12.22.25.33.37,3.34,3.8,6.71,7.45,10.13,11.3.55.62,1.1,1.24,1.64,1.86,7.41,8.52,8.76,15.5,4.14,16.1-.14.02-.28.03-.43.04-1.31.06-2.46.16-3.52.29-3.81.5-6.2,1.57-7.09,3.15-.08.14-.17.27-.28.39-.65.77-.26,3.37.91,6.93-15.75,2.66-32.59,5.82-49.69,9.53-3.81-5.23-9.99-12.42-19.88-21.79-40.47-36.75-91.51-58.78-107.72-59.97-.33-.03-.66-.06-1.01-.1-4.13-.46-7.87-.36-11.05.28-26.42,4.99-4.33,38.06,35.62,74.75,9.48,9.09,19.25,18.27,28.47,27.37-28.61,9.81-54.03,21.63-71.44,35.75C7.46,199.61.53,210.12.97,230.04c.75,34.23,32.49,48.25,59.78,60.18,15.47,6.76,31.93,12.76,49.07,18.14-17.36,18.75-36.94,35.22-49.44,47.51-22.88,21.15-44.36,42.41-53.25,59.1-8.46,15.42-5.36,26.22,7.57,28.72,1.66.32,3.46.51,5.36.55,2.77-.16,10.39-.85,40.18-17.67,5.82-3.31,13.17-7.75,21.02-12.83,10.47-6.72,23.77-12.9,32.81-15.22,3.32-.84,5.81-1.09,7.47-.79,2.88.52,3.24,2.69.53,6.24-2.73,3.57-5.1,6.82-7.11,9.74,4.87-4.45,9.7-9.03,14.48-13.7,19.04-18.72,38.64-39.57,56.69-63.27,1.98-2.64,3.95-5.33,5.88-8.06,10.31,1.99,20.7,3.82,31.11,5.5-11.47,16.15-24.53,31.87-37.97,46.17-.16.17-.31.35-.48.53-23.16,25.39-50.05,54.66-59.22,73.75,3.72-3.25,8.05-7.33,11.93-11.07,5.15-4.94,10.33-10.04,15.52-14.93.39-.37.8-.75,1.23-1.12,3.46-3.09,13.93-12.42,27.05-19.53,4.64-2.48,12.89-6.54,18.49-5.75,1.65.23,2.78.81,3.88,1.38.18.09.36.18.54.28.23.11.43.24.61.4,3.35,2.87,8.84,5.1,14.18,5.79,1.91.25,3.73.3,5.4.15.26-.02.51-.04.76-.04,6.74-.07,13.81-1.57,20.21-4.33.68-.29,1.34-.55,1.97-.75.28-.12.92-.43,1.4-.67,3.25-1.57,9.09-4.5,13.51-4.02,2.32.25,3.98,1.43,4.97,3.5.08.18.16.36.22.56,1.18,3.8-.31,9.91-2.27,17.71-1.74,6.96-3.77,14.89-3.46,21.35,0,.05,0,.1,0,.16.02.82.06,1.62.13,2.4,2.31-4.79,4.87-10.52,7.61-17.32,3.81-10.01,7.6-20.75,11.3-32.04,5.66-17.13,10.84-35.12,15.05-53.02,13.24,1.39,26.32,2.59,39.15,3.63-1.7,4.05-3.47,8.02-5.32,11.95-4.16,8.84-8.54,17.19-12.93,25.49-.06.11-.12.23-.18.34-22.5,40.57-7.8,45.41-1.32,45.83,1.18.09,2.39.04,3.49-.15.39-.07.78-.11,1.15-.12,20.93-.79,48.64-1.75,65.4-2.35.72-.06,1.45-.12,2.18-.17,2.25-.17,5.41-.41,7.33-1.24,2.92-9.26,4.65-33.08,5.27-42.46.07-1.08.15-2.15.22-3.23.5-9.94,1.08-19.68,1.52-29.09.01-.3.03-.6.04-.91,13.2.33,26.66.77,38.76,2.88-1.14,6.45-2.61,12.91-4.17,19.17-3.76,15.37-8.21,29.88-7.51,41.97,1.2,8.75,4.44,11.88,12.36,12.2,6.69.01,16.96.02,28.16,0,17.48-.03,31.54-.08,41.86.09.95-.04,1.9-.07,2.83-.1,4.98-.13,8.08-.39,8.95-2.56.95-2.06,1.86-9.91-2.92-38.08-.03-.17-.05-.33-.08-.49-1.35-8.08-3.28-19.51-5.21-31.02,14.96-.25,29.88-.63,44.8-1.15.4,9.72.52,18.8.54,27.74.04,4.83.07,9.39.18,14.03,0,.21.02.43.02.64.3,10.77,2.28,19.88,6.1,26.28,3.25,5.46,7.31,8.03,9.35,9.04.26.06.54.08.82.07,1.04-.06,3.13-.73,5.06-4.52.05-.1.11-.2.16-.3,4.33-7.16,3.33-32.08-3.91-54.82-.11-.34-.21-.68-.3-1.01-1.46-5.2-3.78-11.44-5.95-17.61,12.26-.49,24.53-1.05,36.84-1.74,7.02,13.62,14.18,26.5,21.52,38.36,17.62,27.83,28.56,39.62,38.91,44.11.2.09.87.39.88.39,0,0,.75.34.97.44.54.26,2.49,1.08,4.72.85,8.1-.83,7.94-12.85.6-31.81-8.02-16.44-24.86-35.12-39.23-54.1,17.19-1.19,34.71-2.65,52.41-4.43,5.03,14.48,6.04,22.98,6.27,30.66.29,5.24.53,10.23,2.67,17.25.04.15.09.29.12.44,0,0,.2.75.22.82,3.5,15.2,15.53,32.25,21.68,36.94,4.73,2.18,15.1,2.23,20.19,2.21,4.09,0,8.33-.02,12.82.35,3.66-.39,8.11-.04,12.47.28,4.66.34,9.12.65,12.66.12,6.83-.96,12.25-5.25-2.33-27.48-14.52-19.1-35.02-33.65-50.11-46.81-.67-.57-1.33-1.15-1.99-1.72-5.45-4.8-10.39-9.87-14.9-15.18,18.23-2.06,36.56-4.47,54.82-7.28,4.5,6.23,9.03,12.33,13.39,18.26,8.21,10.6,15.75,21.31,24.34,32.86,10.69,14.26,22.58,29.38,38.79,43.2,3.93,3.14,6.86,5.15,8.64,6.3,1.17.19,2.91.39,5.33.51,3.33.09,6.69.17,10.06.25,31.61.79,78.01.69,113.42.39,2.01-.11,4.04-.18,6.04-.26,4.18-.15,7.82-.3,10.11-.81,2.07-.46,4.04-1.35,2.89-4.36-1.27-5.33-19.89-20.36-76.84-54.8-.28-.17-.55-.35-.82-.52-17.77-11.42-42.85-26.55-62.03-39.98-7.67-5.25-14.43-10.23-20.22-14.67,18.22-4.06,36.09-8.6,53.42-13.67,17.51-5.12,25.4-9.04,44.36-11.56ZM967.85,200.5c13.13,11.25,25.5,26.65,14.82,43.82-.99,1.6-4.17,4.33-5.19,6.51l-13.71,10.17c9.61-10.13,14.48-29.53,9.67-42.72-1.68-4.6-13.39-3.93-14.53-.26-1.21,3.91-.93,7.73-3.1,12.16-3.08,6.28-13.13,17.45-18.59,22.08-1.12.95-8.18,6.48-9.05,5.69,18.07-20.33,27.72-42.1,12.02-67.42-2.65-4.27-7.13-7.32-8.96-11.87,2.43-2.26,32.95,18.71,36.61,21.84ZM898.59,163.51c.22,2.52-.29,4.14,1.07,6.56,3.49,6.2,18.48,15.4,23.97,21.78,13.56,15.75,13.7,33.64-.52,48.82-1.49-18.46-16.11-34.46-29.48-46.27-8.92-7.88-40.17-30.84-50.57-32.79-2.59-.48-5.7-.53-8.89-.47,4.68-3.5,9.79-7.19,15.26-11.05,16.52,4,32.93,8.45,49.16,13.42ZM771.99,320.45c-4.17-5.63-7.55-11.38-10.38-17.21,12.16-2.8,24.62-7.94,35.47-14.28,2.2,4.74,6.92,11.52,15.35,20.12,1.08,1.05,2.23,2.14,3.41,3.24-14.56,2.97-29.17,5.71-43.84,8.13ZM763.18,176.36c1.03-.59,2.09-1.16,3.13-1.75.39.52.8,1.03,1.22,1.52,9.3,10.86,17.26,17.25,23.6,31.31,9.85,21.85,6.15,56.26-22.11,60.62-16.74,2.58-13.33-4.36-11.93-17.04,1.72-15.59,3.88-24.94.02-41.07-1.24-5.19-4.05-12.16-7.6-19.28,2.66-5.43,8.14-11.19,13.67-14.3ZM745.23,239.18c-.04.53-.09,1.07-.15,1.61-1.31-7.65-2.21-16.3-1.53-25.22,1.7,7.49,2.33,15.34,1.68,23.62ZM723.63,187.27c-2.32-4.86-4.96-9.61-7.91-14.21,6.13-2.51,6.11,2.37,8.51,5.23.85,1.02,1.68,2.04,2.49,3.07-1.04,1.89-2.07,3.86-3.09,5.91ZM727.89,273.05c1.13,3.4,2.37,6.71,3.72,9.93,1.1,2.58,2.3,5.16,3.56,7.73-3.78-.96-6.59-3.01-7.2-6.89-.54-3.47-.48-7.09-.08-10.77ZM753.55,281.85c2.24.6,4.86.97,7.95,1.06,27.22.75,46.99-20.4,48.8-46.77,1.6-23.4-9.15-43.56-23.42-61.05,1.1-1.72,2.23.44,3.02,1.04,55.84,42.09,32.56,98.86-30.47,112.84-.97.21-2.14.47-3.46.74-.91-2.62-1.71-5.25-2.43-7.86ZM810.4,293.57c-.59,1.37-1,2.8-1.19,4.31-1.3-2.68-.36-4,1.19-4.31ZM812.82,289.41c-2.96-2.2-5.65-4.02-7.97-5.39,5.64-3.9,10.61-8.09,14.53-12.37,28.61-31.14,16.3-70.78-10.65-98.07-3.76-3.81-9.99-9.74-15.75-12.64,8.79-4.17,17.52-8.05,25.74-11.56,3.16-1.39,6.02-2.75,8.69-4.14.1-.05.2-.1.29-.15,5.08,1.11,10.15,2.25,15.21,3.44-5.93,4.76-10.76,9.01-14.72,12.8-1.85.07-3.64.11-5.27.07-3.36-.08-13.56-3.4-14.5,1.62-.64,3.45,2.48,7.97,6.78,12.53-.67.86-1.27,1.67-1.81,2.43.71-.65,1.45-1.32,2.22-2,6.26,6.55,14.78,13.12,17.97,16.7,23.53,26.46,21.84,52.57-1.45,78.49-5.45,6.06-14.31,11.41-19.31,18.22ZM770.66,134.31c-8.85,5.79-22.2,14.43-35.43,33.3-1.64-2.04-3.25-3.82-4.78-5.22-4.78-4.39-12.86-4.86-19.27-5.13-1-.04-2.6-.14-4.4-.17.63-.88,1.34-1.87,2.14-2.99,4.43-7.02,10.63-16.42,16.72-26.27,15.04,1.9,30.06,4.05,45.02,6.48ZM657.25,120.71c11.7.98,23.41,2.08,35.11,3.3.09,2.69.49,4.89.93,6.83.6,2.42-.79,6.51-3.49,11.16-.64,1.11-1.27,2.22-1.89,3.33-3.79,6.79-7.24,13.78-10.38,20.91-14.57-7.74-31.24-9.94-48.33-10.57,3.48-9.68,7.14-19.83,10.96-30.08.74-2.04,1.47-4.06,2.18-6.06,5,.38,9.97.77,14.91,1.18ZM612.54,311.59c-.83-1.56-1.78-3.51-2.8-5.66.75-.07,1.35-.14,1.74-.22,6.91-1.32,11.34-16.09,13.25-22.33,3.15-10.29,4.57-21.18,7.19-31.59l11.71.72c6.45,11.01,11.56,23.03,13.88,35.69.94,5.14-1.26,9.09,2.76,13.51,2.51,2.76,7.93,3.75,13.31,3.3,3.18,8.96,6.71,17.77,10.31,26.71-18.77,1.84-37.76,3.38-56.9,4.63-5.81-8.56-10.64-16.73-14.44-24.76ZM534.79,207.59c.82,28.39-.26,56.84-3.68,84.95l-8.56-.02c-.39-1.92.86-3.86.82-5.58-.71-30.47,3.04-66.77.24-96.62-.49-5.21-2.93-10.68-8.74-11.59-7.97-1.26-20.89.01-28.91.96v-10.17s60.6,0,60.6,0c-1.08,3.12-2.03,6.2-2.87,9.26-1.46.03-2.65.15-3.42.38-11.52,3.51-5.74,19.63-5.48,28.44ZM507.64,288.27c-4.12.05-6.22,7.7-5.82,22.75.4,8.93,1.28,19.15,2.54,29.35-14.16.02-28.3-.12-42.42-.41-.85-10.9.42-22,2.26-33.04,5.16.56,10.28.12,12.29-1.49,1.01-.81,4.23-5.91,4.33-7.37.12-1.9-2.18-21.09-2.77-22.56-.94-2.35-3.89-5.95-6.9-9.43.55-4.74.83-9.15.67-12.82,0-.05,0-.11,0-.16-.35-8.38-2.58-20.55-4.74-32.31-1.29-6.98-2.61-14.13-3.8-21.47l7.45-7.9c3.94-3.1,3.81.97,5.56,1.49h33.04c1.79,31.84.58,63.67-.68,95.52-.34-.09-.68-.15-1.01-.14ZM392.21,255.35c-.01,7.48,1.57,15.13,3.55,22.65-.39,3.45-.76,8.19-1.12,14.11l-3.23.41c-15.9-38.25-16.45-81.83-.86-120.32l1.5-1.55,7.49-.13c-2.05,7.01-4.46,15-5.82,22.13-1.29,6.75-5.01,28.78-3.19,34.15,1.09,3.21,10.56,2.73,12.83,1.41.44-.25,1.24-2.39,2.22-3.34,10.18-9.83,20.32-19.69,30.45-29.55.36,3.58.72,5.46.92,6.29.26-.01.71-.13,1.37-.6.58-.41,1.18-.61,1.79-.61.72,0,1.44.28,2.13.82l-19.07,19.87c-2.38,9.04,7.1,15.82,11.92,22.14,2.23,2.92,7.16,8.8,12.35,15.09-.04,5.69-.11,11.32-.19,16.86l-30.49-35.99c-2.33-1.89-7.09-2.19-9.86-1.26-1.77.59-11.85,15.3-14.7,17.42ZM507.67,155.95l-30.18.28-2.22,3.09c-.52-.8-1.12-1.47-1.79-2.05,5.7-6.79,11.99-14.13,17.86-20.9,1.48-1.8,2.71-3.58,3.75-5.43,1.77-3.16,3.96-4.83,6.02-4.79.87.02,1.72.34,2.51.98,2.65,2.16,4.08,7.57,3.86,14.08-.17,5.34-.07,10.33.2,14.74ZM447.42,218.35c.05,6.17.08,12.4.08,18.64-.9-1.17-1.78-2.34-2.65-3.52-.98-1.34-5.71-7.8-5.72-8.55l8.21-8.71c.04.71.07,1.43.07,2.15ZM569.31,179.67c-.3.3-1.5.39-3.24.36.43-3.02.89-6.09,1.39-9.24,0-.06.02-.11.03-.17l1.81,9.05ZM558.43,248.03c.52-3.45,1.62-16.33,3.88-37.76.55-4.93,1.18-10.47,1.92-16.41,6.6.46,13.34.47,16.27-1.5,6.01-4.05,4.05-11.55,2.79-18.02-1.05-5.41-4.15-15.93-9.81-18.46,11.78-16.4,22.11-27.37,29.86-32.55,4.6-3.1,8.56-4.54,11.52-4.3,6.26.48,8.73,8.53,1.49,29.39-.24.74-.51,1.49-.8,2.23-.62,1.62-1.24,3.2-1.86,4.76-7.23-.02-14.45.02-21.54-.17-16.43-.44-6.73,19.18-4.83,27.27,1.77,7.56,3.14,15.36,4.1,23.26-1.85,3.95-3.56,7.64-5.08,11.05-.13.29-.26.56-.39.83-6.65,13.08-13.15,33.76-14.14,43.98-.69,6.21-2.75,9.92-5.39,9.98-.93.02-1.92-.42-2.92-1.37-3.84-3.63-6.22-13.49-5.08-22.21ZM670.51,184.16c-3.89-2.42-8.36-3.79-13.37-4.38-4.34-.51-27.85-.71-36.68.11,1.12-3.08,2.28-6.27,3.46-9.55,7.94-.32,15.83-.56,23.16.18,7.58.77,16.73,4.15,24.97,9.16-.54,1.49-1.05,2.98-1.55,4.48ZM661.85,255.99c-3.74-7.86-9.32-17.31-14.81-18.32-2.89-.53-20.45-.61-23.13-.03-.4.09-4.88,4.95-5.31,6.06-2.8,7.26-3.6,21.12-5.87,29.71-.64,2.42-5.17,17.42-5.97,17.92l-3.92.08c-.93-1.86-1.84-3.57-2.69-5.02,5.86-22.71,7.97-46.37,6.45-69.81,1.99-5.18,4.12-10.81,6.44-16.99.08-.21.17-.42.25-.63.27-.69.55-1.41.83-2.12,1.76,8.84,5.11,19.42,4.52,25.51,3.76,4.05,4.08,6.49,10.16,7.13,7.15.75,21.43.89,32.64-.33-.64,9.17-.52,18.18.42,26.84ZM591.64,253.29c.12-.28.25-.56.37-.84-.45,4.49-1.06,8.95-1.83,13.34-.45-4.81.1-9.39,1.46-12.51ZM663.1,214.37c-8.12.51-22.05.71-29.26-.07-1.46-.16-1.24.01-1.8-1.3-2.02-4.68-1.59-13.88-3.75-19.1,8.95.94,20.35-1.28,28.97,0,3.63.54,6.73,2.38,8.99,4.96-1.27,5.16-2.34,10.34-3.15,15.51ZM601.9,183.17c-.92-4.25-1.94-8.47-3.11-12.65,2.79.21,5.65.29,8.54.29-1.86,4.34-3.67,8.45-5.44,12.36ZM682.74,277.27c-.21.89-2.71,5.23-4.74,8.5-2.29-7.67-4.04-15.51-5.24-23.59-.01-.07-.02-.14-.03-.21-.87-5.51-1.36-11.16-1.53-16.89,1.98,10.84,13.68,23.21,11.55,32.19ZM680.47,234.39c-4.54,2.05-8.34.16-9.34,5.42.02-4.15.22-8.32.58-12.51.72-.21,1.39-.44,1.99-.68,15.12-6.12,12.76-23.65,4.89-34.74.63-2.06,1.3-4.11,2-6.14,5.91,4.93,10.62,10.7,12.79,16.77,5.01,14,.6,25.8-12.91,31.88ZM567.71,115.46c-.14.57-.29,1.14-.42,1.71-.22.9-.44,1.81-.66,2.71-.66,2.75-1.31,5.53-1.94,8.34-.99,4.4-2.7,8.8-4.76,12.34-2.94,5.08-5.5,10.07-7.75,14.99l-40.4.37c2.08-11.28,4.12-25.43,6.02-41.54,16.77.15,33.43.51,49.91,1.08ZM445.19,115.07c.05,2.6.1,5.06.15,7.27.12,5.39-.89,10.32-2.69,13.39-3.97,6.55-7.36,15.66-7.38,40.31l-28.61,28.03c.74-8.16,2.83-16.28,4.74-24.22,2.12-8.78,6.74-13.97,1.45-22.93-8.32-2.43-18.64-.2-27.51-.08-1.72,1.9-4.74,2.97-6.03,5.15-2.12,3.59-6.57,17.81-7.95,22.55-9.62,33.1-8.44,72.13,3.76,104.44,2.18,5.78,4.08,13.9,10.46,15.98,1.06.35,4.37.7,8.34.95-.42,8.96-.84,19.5-1.29,31.41-12.32-.69-24.59-1.49-36.76-2.42.68-8.06,1.84-17.72,3.51-29.34,1.04.07,2.08.14,3.11.23,7.89.3,8.74-6.98,7.1-13.3-.36-1.37-4.4-9.94-6.83-14.82,2.28-26.54,2.74-56.59-1.58-89.86,2.64-5.14,8.41-17.16,8.64-18.04,1.4-5.4.57-11.86-5.16-13.28.02-.11.04-.2.06-.31,1.51-9.15.73-23.13-1.64-36.99,27.24-1.98,54.71-3.34,82.13-4.11ZM290.08,328.65c-1.64-.19-3.28-.36-4.91-.56-15.06-1.76-30.08-3.83-45.07-6.17,4.54-8.52,10.58-19.18,16.26-31.86.03-.06.05-.11.07-.17,2-3.94,3.95-8.71,5.79-13.96,2.77,5.23,6.03,10.4,9.8,15.48,5.32,7.16,8.4,12.47,18.17,13.35,2.34.21,4.72.35,7.13.47-.37,2.05-.76,4.1-1.22,6.16-1.39,6.33-3.43,12.1-6.03,17.26ZM336.99,179.93l-41.69.73c-1.6.17-3.61.82-5.24,1.73-.97-2.42-2-4.85-3.07-7.28,1.67-1.79,3.24-3.07,4.48-3.35l43.88-.88c.52,3.09,1.08,6.14,1.64,9.05ZM298.31,247.79c.72,5.62,1.18,11.43,1.51,17.06.01.23.02.47.03.71.01.48.02.97.03,1.45-.45.04-.89.07-1.34.14l-6.79-19.35h6.55ZM305.4,247.79h38.73c.45,0,6.11-5.98,6.19-6.56.36-2.45-.63-10.73-.65-14.33-.03-6.77,3.03-10.81-4.66-15.58-14.74-2.58-30.28.36-45.51.17-.9-3.61-1.9-7.22-3-10.84l2.04-5.78c6.46.75,12.77-.8,19.11-1.01,6.89-.24,14.88.36,22.43.51.5,2.07.96,3.79,1.34,5.02.36-.18.74-.43,1.14-.77.59-.51,1.24-.77,1.92-.79,1.53-.05,3.24,1.11,4.81,3.4,2.26,3.3,3.91,8.54,4.29,14.06,1.23,16.89,1.2,34.65-.42,53.15-8.76-1.45-29.32.03-36.53-.26-3.39-.14-6.93-.79-10.53-1.11.02-6.39-.2-12.81-.71-19.26ZM303.82,233.59c-.38-2.64-.8-5.29-1.28-7.94,15.03-.61,32.75-2.44,33.96-1.24l-1.03,9.14-31.65.04ZM332.56,150.12c.03.25.05.49.08.74.03.24.05.48.06.71.18,1.85.4,3.77.64,5.74-.46.01-.92.03-1.37.03-12.84.17-30.6-1.61-42.65.05-2.76.38-5.4,1.68-7.88,3.5-.27-1.18-.47-2.31-.56-3.35-.3-3.51.58-5.78,2.55-6.27,3.07-.79,4.76-3.03,3.33-12.29-.73-3.8-2.29-8.06-4.09-11.98,16.95-2.08,34.09-3.9,51.37-5.46-2.41,7.73-2.62,16.84-1.48,28.58ZM288.92,290.28c-1.57-3.86-4.85-6.29-7.18-9.62-5.93-8.49-10.34-17.36-13.13-26.46,2.62-10.6,4.66-21.34,5.78-30.26.08-.47.17-.92.27-1.35.58-2.55,1.22-4.67,1.94-6.38.16,2.69,3.61,6.81,5.61,8.09,1.7,1.08,5.93,1.49,11.31,1.53.83,2.39,1.59,5,2.26,7.77l-11.59.02c-13.31,2.11-5.35,22.3-2.62,29.95,2.83,7.93,4.88,17.74,14.88,18.66h3.34c-.11,2.73-.29,5.48-.53,8.25l-10.34-.2ZM305.26,286.87c.13-1.54.23-3.09.33-4.64l43.5.05,1.91,4.79c-.21,1.46-.42,2.91-.64,4.37l-45.46-.87c.12-1.24.26-2.48.36-3.71ZM109.49,122.39c.79-.15,1.67-.25,2.62-.27,10.28-.74,28.39,6.34,41.19,12.26.22.1.43.2.64.29-14.02,3.31-28.05,7-41.62,11.09-8.61-12.64-12.27-21.52-2.84-23.37ZM85.19,179.98c10.34-1.37,21.22-4.37,31.72-3.99,1.42,1.65,2.81,3.3,4.13,4.93.1.12.19.24.29.37-2.89,5.77-8.5,14.92-9.63,16.06-2.79,2.79-5.52,1.42-9.04,1.64,2.03-7.57-3.84-16.27-11.69-16.27h-14.74l8.96-2.74ZM59.97,260.49c-2.03-1-8.81-5.23-10.41-6.59-1.83-1.55-3.59-5.49-5.16-6.81-5.56-4.66-17.94-1.19-24.89-2.57-2.61-4.29-5.1-8.82-5.28-14.02,5.27,3.58,10.37,7.3,16.48,9.44,16.4,5.73,45.81,4.76,56.69,17.53.8.94,5.81,7.99,5.1,8.61-10.58.27-22.93-.86-32.53-5.59ZM78.28,280.31l17.31-.47c19.48-5.56,10.36-23.83.5-34.11-16.44-17.14-44.68-11.65-65.29-21.12-20.32-9.34,9.02-28.17,10.88-26.63-3.18,4.57-6.25,8.31-4.61,14.25.27.98,3.28,6.29,3.91,6.77,2.56,1.95,15.11,5.05,18.96,5.95,14.43,3.4,24.66,2.32,37.14,12.68,8.87,7.37,21.57,28.66,26.67,39.41.89,1.87,4.25,7.72,2.35,8.89-1.52.94-14.97.68-17.81.47-10.17-.76-20.07-4.14-30-6.1ZM107.27,227.43c-17.06-14.6-34.68-13.98-55.43-19.3,7.56-11.25,22.91-10.96,35.07-11.18-.4,2.88-3.53,4.21-3.62,7.59-.05,1.97,1.85,7.86,3.78,8.51,1.94.66,23.31.56,26.21.1,1.42-.22,6.41-2.41,7.38-3.3.97-.88,6.08-9.2,10.04-15.95,1.74,2.59,3.33,5.16,4.79,7.71-11.43,21.04-11.14,43.23,3.86,65.63-.72,1.53-1.49,3.05-2.31,4.56-5.84-13.07-21.4-37.2-29.78-44.38ZM194.69,303.41c-.04.13-.08.26-.12.39-.08.26-.18.53-.28.81-.92,2.49-2.2,5.39-3.73,8.5-19.31-3.86-38.52-8.21-57.57-13.03.94-1.21,1.86-2.43,2.77-3.66.33-.24.67-.5.99-.83,1.81-1.81,2.92-3.63,3.55-5.48,2.73-3.94,5.26-7.92,7.53-11.94.19.21.36.43.55.64,3.65,4.06,17.03,16.92,24.87,21.33,0,.08-.02.16-.03.23.07-.04.14-.09.22-.13,1.6.88,2.96,1.41,3.94,1.41h17.73c-.06.31-.13.63-.21.96-.06.26-.14.52-.22.79ZM154.61,263.69c1.07-2.75,1.96-5.51,2.67-8.26,5.06,11.08,15.75,24.67,20.62,29.96-.71.65-7.22-4.69-8.2-5.55-6-5.3-11.05-10.65-15.14-16.04.01-.04.03-.08.05-.12ZM183.87,270.21c-4.94-6.02-9.34-12.4-13.09-19.38h18.34c-1.36,5.28-2.97,12.05-5.26,19.38ZM215.86,233.2c-1.15-.11-2.44-.13-3.89-.12-1.5.01-3.04.02-4.56-.14-.8.12-1.68.18-2.7.19-.68,0-1.38,0-2.08-.02-.64-.01-1.28-.03-1.93-.02-3.45.03-5.37.58-7.11,3.93-10.08-.16-20.61-1.59-30.45-.44-1.23.14-2.48.58-3.63,1.21,0-3.25-.21-6.5-.65-9.73,1.61.77,3.65,1.27,6.26,1.42,10.48.6,27.14.8,37.33-.58,10.55-1.43,17.01-7.44,21.73-16.68,4.42-8.66,9.2-24.47-2.59-28.96-7.1-2.7-32.98-2.2-41.18-.98-10.74,1.6-13.14,6.62-18.28,15.67-2.34,4.11-5.32,9.66-6.95,14.96-1.17-3.39-2.58-6.75-4.2-10.09,4.24-6.39,9.96-12.75,17.27-19.08,5.55-4.8,9.75-8.45,17.3-9.14,12.27-1.12,37.76-2.07,49.84-1.07,11.37.94,9.06,7.36,6.86,16.08-2.66,10.51-9.07,27.13-15.97,35.38-3.15,3.76-6.65,6.38-10.41,8.21ZM169.77,215.25c1.72-5.76,8-19.32,14.74-19.32h29.99c-.41,7.77-5.69,18.11-14.18,18.86-2.9.26-9.89.45-12.76.45h-17.79ZM146.71,238.09c0,.33,0,.66,0,.99-.08,3.2-.45,6.39-1.07,9.57-4.07-9.79-4.89-19.65-2.25-29.51,2.07,6.41,3.21,12.71,3.33,18.95ZM168.79,340.44c-3.11,2.09-6.47,4.33-10.16,6.69-16.72,10.95-42.18,24.33-59.39,26.38-3.68.53-6.8.54-9.22.05-15.21-2.93-.08-23.48,23.57-49.75,3.1-3.72,6.32-7.54,9.56-11.45,19.28,5.56,39.3,10.36,59.69,14.5-2.8,4.41-7.98,9.52-14.05,13.58ZM201.04,315.16c9.03-14.47,16.6-30.03,20.57-46.53.43-1.85.82-3.69,1.14-5.5,1.14-6.19,1.51-12.14,1.28-17.04,17.47-10.75,28.18-37.32,32.44-54.43,4.46-17.9-.2-30.64-20.08-32.35-13.16-1.13-37.28.06-50.91,1.01-13.5.95-19.99,6.27-29.43,15.3-4.77,4.56-8.97,9.2-12.6,13.91-2.05-3.26-4.2-6.5-6.41-9.68,1.01-6.08-.3-12.61-6.21-15.62l-5.97-1.21c-1.24-1.67-2.46-3.31-3.65-4.91,23.19-5.72,46.21-12.22,69.69-16.77,11.28-2.19,22.75-4.21,34.34-6.12,2.2,4.01,4.78,8.05,7.58,11.58.05.06.54.69.54.69.33.41.64.83.95,1.24,1.39,1.88,4.8,3.5,7.31,3.98,3.01.58,7.14,3.48,10.79,7.84,3.66,4.36,6.36,9.64,7.38,14.18.91,3.97,1.7,7.96,2.4,11.97-13.87,26.84-15.13,54.55-3.95,80.9-5.23,17.01-14.43,35.14-25.97,53.08-10.44-1.7-20.85-3.54-31.24-5.52ZM280.74,342.14c-10.83,11.34-18.9,10.48-21.27,10.21-1.37-.15-2.62-.43-3.71-.68-.85-.19-1.65-.37-2.3-.45-.21-.02-.36-.03-.45-.03-.82.2-1.57.27-2.21.2-.38-.04-.72-.13-1.02-.27-.64-.07-2.32.19-3.81.42-2.71.42-5.81.89-8.53.55-6.89-.84-7.68-6.61-3.97-16.3,15.81,2.4,31.64,4.49,47.33,6.29-.02.02-.03.04-.05.06ZM298.81,329.64c1.68-8.18,3.12-16.28,4.27-24.21,14.6.32,30.05-.56,44.86-.33-.34,1.73-.69,3.46-1.06,5.2-.04.2-.09.4-.13.6-1.86,8.06-4.1,15.56-6.61,22.72-13.91-1.18-27.69-2.51-41.33-3.99ZM391.81,358.41c-.22,6.47-2.62,13.75-6.36,18.62-2.64,3.46-5.58,5.25-8.01,5.13-.99-.05-1.9-.41-2.67-1.12-1.59-1.45-3.61-2.34-5.73-3.28-9.22-3.63-14.05-9.12-13.9-28.9,8.33.59,16.53,1.12,24.56,1.59,4.02.24,8.18.39,12.4.51-.1,2.51-.2,4.98-.28,7.43ZM402.46,321.17c-.03-5.04.96-10.51,2.61-14.97,3.85-.06,6.92-.34,7.65-.97,4.43-3.82,2.62-10.6.58-16.57.15-1.26.24-2.49.23-3.62-.18-5.78-1.31-9.01-3.58-13.64-.63-1.28-1.36-2.38-2.16-3.29-.64-3-1.09-5.58-1.03-6.65.11-2.06,3.04-5,4.46-6.53l35.45,41.6c-.69,16.03-1.93,30.25-3.75,42.96-13.62-.41-27.19-.96-40.69-1.66.18-5.86.26-11.45.22-16.66ZM508.22,364.78c1.2,6.08.94,12.22-.92,16.22-1.27,2.75-3.16,4.22-5.27,4.27-.96.02-1.95-.26-2.95-.85-1.65-.97-3.65-1.53-5.75-2.12-1.58-.45-3.2-.91-4.87-1.6-4.59-1.46-17.32-7.17-23.43-25.02,13.9.01,27.72-.08,41.49-.27.53,3.21,1.1,6.35,1.7,9.37ZM512.25,340.35c-1.73-10.38-3.23-19.54-4-24.69-.07-.37-.13-.75-.18-1.13-1.08-7.43-.29-12.42.51-15.29,0,0,0-.01,0-.02,1.29,4.15,3.5,7.12,8.32,7.59,7.63.74,24.8,1.93,27.57-7.12,4.64-32.26,5.52-64.93,3.99-97.46.45.34.89.78,1.29,1.39,1.99,2.99,2.93,8.78,2.65,15.12-1.72,38.7,1.55,72.54,4.59,100.79,0,.06.01.13.02.19.75,7.02,1.31,13.59,1.74,19.84-15.47.45-30.99.71-46.5.79ZM567.04,339.29c-.4-1.48-.78-2.95-1.1-4.4-.15-.68-.28-1.35-.4-2.02-1.8-11.09.52-16.26,3.03-22.21,0,0,.51-1.2.53-1.23.98-2.24,2.27-5.42,3.75-9.19.85-2.17,2.11-3.25,3.56-3.3,2.22-.09,4.85,2.22,7.33,6.65,4.32,7.72,8.65,15.97,12.94,24.55.13.25.25.51.38.77,1.44,3.01,2.89,5.99,4.34,8.94-11.41.59-22.87,1.06-34.35,1.44ZM742.51,324.91c-14.39,1.95-28.96,3.7-43.69,5.28-5.91-8.82-10.86-18.22-15.02-28.16,1.18-.71,2.16-1.53,2.86-2.46,1.02-5.23,9.89-14.52,10.72-18.75,2.14-10.93-6.38-24.1-10.1-33.95,27.31-13,28.57-42.92,10.09-64.62-3.47-4.08-7.19-7.52-11.1-10.45,2.27-3.96,5.35-7.65,8.59-10.21.2-.16.4-.3.6-.45-2.85,8.49,2.8,10.6,6.85,17.2,12.16,19.82,19.51,37.86,17.45,61.82-1.25,14.53-10.04,37.04-4.57,51.37.48,1.25,6.23,9.45,6.9,9.87.43.27,8.5,2.8,9.66,3.05,3.6.77,7.46,1.12,11.48,1.1,3.53,5.95,7.35,11.84,11.31,17.64-4.01.59-8.01,1.19-12.03,1.73ZM878.23,359.38c3.92,2.49,7.94,5,12.08,7.51,6.34,3.84,9.89,7.12,9.3,8.92-.19.59-.81.99-1.81,1.22-2.06.47-5.77.16-10.59-.96-2.16-.5-5.55-.87-8.5-1.2-2.94-.33-6.22-.71-9.98-1.39-30.53-4.16-64.38-21.41-81.1-36.17-.25-.22-.5-.43-.75-.65-1.28-1.14-2.49-2.28-3.68-3.43,15.6-2.65,31.1-5.6,46.37-8.88,13.06,10.82,29.5,22.92,48.66,35.04ZM877.3,271.65c-3.48,5.22-23.79,22.53-20.21,27.92,2.49,1.07,4.97.03,7.5.03,1.19,0,3.85-.69,3.6,1.05-15.26,3.68-30.58,7.15-45.97,10.37-1.92-1.58-3.55-2.94-4.85-4.01-.54-.44-1.06-.88-1.55-1.32-1.54-1.4-2.77-2.64-3.77-3.77,4.75.29,13.58-1.1,15.99-1.25,4.11-.25,8.82,1.1,13.68-.55,1.75-.59,11.65-7.94,13.74-9.64,10.62-8.64,21.13-20.39,27.47-32.52.77,4.09-3.34,10.25-5.65,13.71ZM885.5,283.88c8.66-10.47,15.18-24.69,14.26-38.68-.69-10.48-6.19-20.66-11.2-29.46l-14.25-.48c-.04,4.27,1.74,8.51,2.02,12.71,1.43,21.62-16.98,40.29-32.17,53.19-1.42,1.21-3.51,3.2-5.42,3.21,11.17-11.48,21.27-24.75,24.77-40.8,5.72-26.22-8.47-50.42-26.8-67.96,6.5.72,13.3,5.11,18.9,8.54,16.16,9.89,47.7,33.75,52.82,52.4,2.55,9.3,1.22,17.44-1.15,26.53,4.08,3.22,8.2.59,12.79.98-2.76,2.24-6.21,4.63-9.24,6.51-6.04,3.76-17.79,11.28-23.82,13.8-.46.19-1.66.26-1.5-.49Z"/>
  <path class="st0" d="M124.12,456.4l.94-1.96c9-18.73,34.9-47.12,57.75-72.16l2.02-2.22c13.88-14.77,26.5-30.09,37.52-45.55-10.27-1.67-20.41-3.46-30.13-5.33-1.83,2.58-3.75,5.21-5.72,7.84-15.56,20.43-33.58,40.55-56.73,63.32-4.91,4.79-9.78,9.4-14.49,13.71l-2.88,2.63,2.21-3.22c2.04-2.97,4.44-6.25,7.12-9.75,1.42-1.87,2.01-3.41,1.64-4.35-.23-.6-.87-1-1.9-1.18-1.63-.29-4.08-.03-7.28.78-9.02,2.31-22.15,8.4-32.68,15.16-7.2,4.65-14.67,9.21-21.04,12.84-30.39,17.16-37.91,17.59-40.38,17.73-1.96-.04-3.79-.23-5.47-.56-5.58-1.08-9.52-3.75-11.39-7.74-2.52-5.37-1.31-12.85,3.51-21.64,9.15-17.19,32.1-39.58,53.34-59.21,4.36-4.29,9.67-9.16,15.29-14.33,10.55-9.69,22.49-20.66,33.64-32.64-17.51-5.51-33.8-11.55-48.44-17.94-26.41-11.54-59.28-25.91-60.05-60.57-.46-20.97,7.26-31.28,21.66-42.96,15.87-12.88,39.72-24.85,70.89-35.59-6.38-6.28-13.1-12.69-19.61-18.89-2.79-2.66-5.58-5.32-8.34-7.97-15.71-14.42-51.73-49.85-46.81-67.07,1.26-4.41,5.1-7.24,11.41-8.44,3.24-.65,7-.75,11.18-.29.34.04.67.07.99.1,15.87,1.16,66.96,22.83,107.99,60.09,8.48,8.03,15.13,15.3,19.77,21.62,15.49-3.36,31.94-6.52,48.92-9.39-1.17-3.7-1.4-6.01-.67-6.87.09-.1.17-.21.23-.33.97-1.72,3.47-2.85,7.42-3.37,1.07-.14,2.23-.24,3.56-.3.14,0,.27-.02.4-.03,1.05-.13,1.74-.63,2.07-1.49,1.03-2.71-1.52-8.15-6.49-13.87-.54-.62-1.09-1.24-1.64-1.86-1.49-1.68-2.97-3.32-4.44-4.94-1.91-2.11-3.81-4.21-5.69-6.36l-.33-.37c-11.85-13.27-23.65-28.18-34.12-43.12C159.19,9.06,158.35,2.46,158.91.98l.14-.38.39.1c1.26.33,3.2.93,4.94,1.47l1.09.34c.86.27,1.71.53,2.57.79,2,.61,3.84,1.03,5.47,1.25,6.18.8,13.31,1.6,19.77.83l.64-.08.15.24c2.78,4.28,5.8,9.15,8.96,14.49l-.28.41.38-.23c11.75,19.46,20.15,35.35,25.68,48.59l.1.23c1.36,3.14,2.54,6.14,3.62,8.93l.6,1.55c.77,1.99,1.55,4.02,2.39,6.09,1.93,4.78,6.9,11.22,12.96,16.82,5.88,5.4,11.35,8.62,14.61,8.54h.66c6.38-.13,8.36.08,10.6,2.18,18.83-2.35,38.31-4.43,57.9-6.17-3.87-15-7.36-30.05-6.9-39.07.08-1.07.2-2.04.35-2.89l.21-1.2.61,1.05c1.78,3.05,3.6,6.59,5.42,10.52,2.73,5.91,6.77,11.38,10.81,14.62,2.37,1.9,4.56,2.83,6.32,2.73,1.08-.07,1.97-.54,2.67-1.38.99-1.21,1.92-2.19,2.77-2.9l.46-.39.23.56c.51,1.2,1.01,2.51,1.51,3.88,1.34,3.66,2.59,7.76,3.74,12.19,27.57-2.01,55.89-3.44,84.22-4.24.05-5.77.21-10.73.49-15.13v-.22c.52-8.77,1.66-14.17,2.53-17.16l.39-1.36.74,2.16c2.1,6.12,3.77,14.31,5.1,25.04.28,2.23.77,4.38,1.45,6.38,5.42-.12,11.09-.23,16.86-.31l.55-.6c.5-.55,1-1.09,1.51-1.64,11.13-11.96,23.06-23.85,35.46-35.34,1.82-1.61,3.58-3.23,5.28-4.8l1.82-1.68c2.49-2.28,4.39-3.94,5.83-5.06l.67-.52.05.85c.16,2.69.19,7.99-.58,17.93-.9,10.61-1.89,20.95-2.92,30.74,16.99.16,34.24.54,51.3,1.15,2.94-10.08,7.53-24.1,12.85-34.4l.69-1.34.15,1.5c.26,2.68.25,6.04-.04,10v.22c-.2,3.09-.6,6.73-1.18,10.84-.72,5.11.42,8.78,2.96,9.58.27.09.57.14.87.16,2.51.16,5.96-1.93,9.47-5.75,3.43-3.73,6.46-6.96,9.27-9.86,18.41-18.92,31.37-28.16,38.48-27.51,3.73.35,6.63,3.17,8.39,8.17l.04.12c3.05,7.58,1.31,21.09-5.46,42.5,15.9,1.21,31.54,2.6,46.49,4.15,1.26-4.19,2.98-8.64,5.28-13.58l.41-.89c9.37-19.56,22-37.77,30.69-48.29l.35-.42.34.42c2,2.44,3.85,5.6,5.4,8.37l1.79,3.2c1.01,2.31,2.14,4.36,3.24,6.34l.36.66c3.8,6.82,6.47,12.97,3.57,24.68-1.77,6.05-5.43,13.97-11.19,24.19l.99.13c.69.09,1.39.17,2.08.26,16.8,2.2,33.44,4.7,49.45,7.44.52-.48,1.03-.95,1.51-1.42,8.85-8.68,18.29-17.32,28.07-25.67,6.56-5.6,12.99-10.84,19.65-16.03l.53-.41c2.71-2.16,5.44-4.26,8.11-6.25l2.17-1.62-1.53,2.23c-5.89,8.58-15.87,19.18-25.78,29.35-2.32,2.4-3.46,4.42-3.12,5.56.15.52.64.87,1.46,1.05l.13.03c2.84.54,8.58-.86,16.18-3.92,7.47-3.01,15.33-6.08,23.37-9.12,32.64-12.35,71.5-25.4,115.5-38.79,2.86-.87,5.75-1.75,8.6-2.62,4.58-1.4,9.08-2.78,13.29-4.04,1.67-.5,3.55-1.07,5.51-1.65l1.77-.52-1.33,1.27c-4.79,4.59-18.62,14.42-42.26,30.06-25.25,15.85-62.14,39.18-92,59.45,53.89,14.15,92.58,31.11,114.99,50.43,16.11,13.89,25.44,28.34,18.6,53.75-5.08,18.87-47.9,52.75-65.56,55.1h0c-13.69,1.82-21.57,4.36-31.55,7.58-3.89,1.25-7.91,2.55-12.74,3.96-16.48,4.82-34.14,9.35-52.51,13.46,6.41,4.9,12.95,9.63,19.44,14.07,13.33,9.33,29.69,19.59,44.11,28.65,6.42,4.03,12.49,7.84,17.9,11.32.26.17.53.34.81.52,49.55,29.97,75.48,48.5,77.04,55.08.45,1.17.47,2.2.04,3.01-.63,1.17-2.08,1.63-3.27,1.89-2.37.53-6.17.67-10.19.82-2,.07-4.02.15-6.03.25-27.24.24-78.18.5-113.46-.39-3.37-.07-6.73-.16-10.06-.25-2.05-.1-3.86-.27-5.39-.51l-.17-.07c-1.79-1.16-4.75-3.19-8.68-6.33-16.44-14.01-28.68-29.69-38.87-43.29-3.2-4.3-6.25-8.48-9.25-12.58-5.11-7.01-9.94-13.62-15.09-20.28l-3.47-4.71c-3.2-4.34-6.5-8.82-9.77-13.34-17.24,2.64-35.31,5.04-53.73,7.14,4.44,5.16,9.25,10.03,14.31,14.49.66.57,1.32,1.15,1.99,1.72,3.68,3.21,7.64,6.47,11.84,9.92,12.81,10.54,27.33,22.48,38.34,36.96,7.85,11.95,10.69,19.87,8.72,24.23-1.31,2.9-4.44,3.65-6.68,3.96-3.68.56-8.29.21-12.75-.12l-.39-.03c-4.17-.31-8.48-.63-12-.25-4.41-.36-8.51-.36-12.48-.35h-.39c-4.19.02-15.4.04-20.38-2.25-6.5-4.95-18.48-22.28-21.92-37.25l-.12-.47c-.05-.18-.07-.28-.09-.34h0c-.04-.14-.08-.28-.12-.42-2.11-6.93-2.38-11.83-2.67-17.03l-.02-.33c-.25-8.19-1.39-16.47-6.13-30.21-16.56,1.66-33.79,3.12-51.25,4.34,3.85,5.07,7.9,10.15,11.83,15.08,10.87,13.65,21.14,26.53,26.95,38.44,5.6,14.44,6.99,24.6,4.04,29.41-1.1,1.79-2.78,2.81-4.99,3.04-2.36.25-4.39-.62-4.96-.89-.16-.08-.62-.28-.84-.38-.03-.01-.06-.03-.09-.05-.03-.01-.07-.03-.13-.06-.19-.09-.61-.27-.76-.34-10.84-4.7-22.17-17.53-39.11-44.28-6.99-11.29-14-23.77-21.41-38.14-11.2.62-22.98,1.18-35.96,1.7.4,1.15.81,2.3,1.22,3.45,1.74,4.9,3.39,9.53,4.53,13.62.09.33.19.67.3,1,7.57,23.77,8.11,48.16,3.87,55.19-.05.08-.1.18-.15.27-2.03,3.99-4.28,4.7-5.44,4.76-.31.02-.63,0-.94-.08-2.25-1.11-6.35-3.72-9.64-9.25-3.78-6.33-5.85-15.25-6.16-26.5l-.02-.64c-.12-4.75-.15-9.48-.18-14.04-.03-10.56-.19-19-.53-27.28-14.45.5-29.19.88-43.85,1.12l2.05,12.19c1.16,6.88,2.23,13.25,3.08,18.31l.08.49c4.82,28.36,3.88,36.2,2.89,38.34-.97,2.42-4.18,2.68-9.34,2.82-.94.02-1.88.05-2.83.1-9.38-.16-21.6-.13-37.07-.1h-4.81c-11.2.03-21.47.03-28.17.01-8.23-.33-11.57-3.63-12.8-12.58-.59-10.16,2.41-21.97,5.59-34.47.64-2.53,1.29-5.09,1.93-7.67,1.8-7.25,3.1-13.21,4.08-18.7-11.54-1.96-23.97-2.43-37.82-2.78l-.02.47c-.25,5.32-.54,10.75-.84,16.26-.23,4.23-.46,8.51-.68,12.83l-.22,3.24c-.98,14.89-2.7,34.36-5.29,42.57l-.06.19-.19.08c-2.02.87-5.3,1.11-7.47,1.27-.73.05-1.46.11-2.17.17l-14.82.52c-15.76.56-35.06,1.23-50.6,1.82-.35.01-.71.05-1.09.12-1.13.2-2.38.25-3.6.15-3.09-.2-7.26-1.31-9.55-5.48-4.03-7.37-.49-21.17,10.51-41.01l.17-.33c4.25-8.02,8.74-16.59,12.92-25.48,1.8-3.83,3.5-7.66,5.07-11.37-12.94-1.05-25.77-2.24-38.16-3.54-4.03,17.1-9.06,34.82-14.97,52.67-3.68,11.22-7.48,22-11.3,32.05-2.5,6.22-5.07,12.06-7.62,17.35l-.71,1.48-.13-1.64c-.06-.79-.11-1.6-.13-2.43l.44-.17-.45.02c-.3-6.34,1.63-14.07,3.33-20.89l.15-.59c1.85-7.35,3.44-13.69,2.27-17.46-.05-.18-.12-.34-.19-.5-.93-1.95-2.44-3.01-4.62-3.25-4.11-.46-9.58,2.2-12.85,3.78l-.42.2c-.51.25-1.14.55-1.42.67-.66.22-1.31.47-1.97.75-6.46,2.79-13.51,4.3-20.39,4.37-.23,0-.48.02-.72.04-1.7.15-3.55.1-5.5-.15-5.47-.71-10.99-2.97-14.42-5.9-.15-.13-.32-.24-.51-.34l-.55-.27c-1.08-.55-2.17-1.11-3.75-1.34-4.03-.56-9.98,1.3-18.21,5.7-13.2,7.15-23.56,16.42-26.96,19.46-.42.37-.83.75-1.22,1.12-3.4,3.2-6.86,6.55-10.2,9.78-1.78,1.72-3.55,3.44-5.32,5.14-4.94,4.74-8.84,8.37-11.95,11.08l-1.64,1.43ZM191.82,328.19l.28.05c10.03,1.93,20.49,3.78,31.1,5.49l.71.11-.42.59c-11.14,15.69-23.93,31.23-38,46.22l-2.02,2.22c-21.98,24.09-46.78,51.28-56.56,69.88,2.78-2.49,6.13-5.62,10.18-9.51,1.77-1.7,3.54-3.42,5.32-5.14,3.34-3.24,6.8-6.58,10.21-9.79.4-.37.81-.75,1.23-1.13,3.42-3.06,13.84-12.39,27.14-19.59,8.41-4.5,14.55-6.4,18.76-5.8,1.72.24,2.88.84,4.01,1.42l.56.28c.25.12.49.28.69.45,3.3,2.82,8.65,5,13.95,5.69,1.88.24,3.67.29,5.31.14.28-.02.54-.04.8-.04,6.76-.07,13.69-1.55,20.04-4.3.68-.3,1.36-.55,2-.77.24-.1.85-.4,1.31-.63l.45-.22c3.36-1.62,8.97-4.33,13.33-3.86,2.48.27,4.27,1.53,5.33,3.76.09.19.17.4.24.62,1.24,4.01-.38,10.47-2.26,17.94l-.15.59c-1.69,6.76-3.6,14.42-3.3,20.63v.17c.01.22.02.45.03.67,2.3-4.86,4.6-10.14,6.85-15.74,3.82-10.03,7.61-20.8,11.29-32.01,5.94-17.96,11-35.79,15.04-52.98l.09-.38.39.04c12.7,1.33,25.87,2.55,39.14,3.63l.61.05-.24.57c-1.64,3.9-3.43,7.93-5.32,11.97-4.19,8.91-8.69,17.49-12.94,25.51l-.18.34c-13.51,24.37-13.17,35.29-10.51,40.16,2.09,3.82,5.95,4.83,8.82,5.02,1.15.09,2.32.04,3.38-.14.41-.07.81-.11,1.2-.13,15.55-.59,34.84-1.27,50.61-1.82l14.8-.52c.7-.06,1.43-.12,2.16-.17,2.04-.15,5.1-.38,7-1.13,2.53-8.24,4.22-27.44,5.19-42.16l.22-3.23c.22-4.31.45-8.59.68-12.83.3-5.51.59-10.93.84-16.26l.06-1.34h.44c14.24.37,26.98.83,38.83,2.89l.44.08-.08.44c-.99,5.63-2.32,11.74-4.17,19.2-.63,2.59-1.28,5.15-1.93,7.68-3.16,12.43-6.15,24.17-5.57,34.16,1.17,8.48,4.18,11.46,11.93,11.78,6.67.02,16.95.02,28.14,0h4.81c15.47-.04,27.7-.06,37.06.09.92-.04,1.87-.07,2.82-.1,4.66-.13,7.77-.35,8.54-2.28.77-1.67,2.01-8.66-2.95-37.84l-.08-.51c-.84-5.05-1.92-11.42-3.07-18.3l-2.22-13.22h.52c14.97-.26,30.04-.65,44.79-1.16l.44-.02.02.44c.35,8.44.52,17,.54,27.76.03,4.56.07,9.28.18,14.02l.02.64c.31,11.1,2.34,19.87,6.03,26.07,3.17,5.33,7.1,7.85,9.17,8.87.12.02.35.03.59.02.78-.04,2.79-.55,4.69-4.28.06-.11.11-.22.17-.32,4.14-6.86,3.33-31.6-3.95-54.46-.11-.35-.21-.69-.3-1.03-1.14-4.06-2.78-8.68-4.52-13.56-.47-1.34-.95-2.68-1.42-4.02l-.2-.57.6-.02c13.33-.53,25.38-1.1,36.84-1.74l.29-.02.13.26c7.45,14.46,14.49,27,21.5,38.33,16.83,26.58,28.04,39.31,38.71,43.93.15.06.58.25.77.34h.02s.21.1.21.1c.22.1.69.31.85.39.37.18,2.31,1.04,4.48.81,1.92-.2,3.38-1.08,4.32-2.62,2.76-4.5,1.31-14.66-4.09-28.59-5.75-11.78-15.99-24.63-26.83-38.24-4.1-5.15-8.34-10.46-12.34-15.76l-.5-.66.82-.06c17.85-1.24,35.48-2.73,52.4-4.43l.35-.03.12.33c4.88,14.04,6.05,22.46,6.3,30.79l.02.32c.29,5.14.56,9.99,2.63,16.82.05.15.09.3.13.45l.22.83c3.4,14.79,15.2,31.88,21.51,36.7,4.72,2.16,15.76,2.14,19.92,2.12h.39c3.98,0,8.1,0,12.47.35,3.51-.38,7.86-.06,12.07.25l.39.03c4.21.31,8.98.66,12.56.12,3.23-.45,5.14-1.55,6-3.45,1.81-4-1.1-11.85-8.64-23.34-10.93-14.37-25.4-26.28-38.18-36.79-4.2-3.45-8.17-6.72-11.86-9.93-.67-.57-1.33-1.15-1.99-1.72-5.3-4.68-10.33-9.8-14.95-15.23l-.54-.64.83-.1c18.8-2.13,37.23-4.58,54.8-7.27l.27-.04.16.22c3.32,4.59,6.68,9.15,9.92,13.55l3.47,4.71c5.15,6.66,9.99,13.28,15.1,20.29,2.99,4.1,6.04,8.28,9.24,12.57,10.16,13.56,22.37,29.19,38.72,43.13,3.83,3.06,6.73,5.06,8.51,6.21,1.48.23,3.22.4,5.19.49,3.32.09,6.68.17,10.05.25,35.27.88,86.19.62,113.41.39,2-.11,4.03-.18,6.03-.26,3.98-.15,7.74-.29,10.03-.8,1.01-.22,2.22-.59,2.68-1.44.3-.56.27-1.35-.11-2.32-1.06-4.41-15.2-17.41-76.66-54.58-.29-.18-.57-.35-.83-.53-5.41-3.47-11.47-7.28-17.89-11.31-14.44-9.06-30.8-19.33-44.15-28.67-6.76-4.62-13.56-9.56-20.23-14.68l-.76-.58.93-.21c18.69-4.17,36.66-8.76,53.39-13.66,4.83-1.41,8.84-2.71,12.72-3.96,10.02-3.23,17.94-5.78,31.7-7.61h0c17.46-2.32,59.8-35.8,64.82-54.45,6.71-24.95-2.47-39.17-18.33-52.84-22.44-19.34-61.32-36.33-115.58-50.49l-.95-.25.81-.55c30.02-20.41,67.36-44.02,92.84-60.02,21.53-14.24,34.89-23.64,40.67-28.64-1.27.38-2.49.75-3.62,1.08-4.21,1.27-8.71,2.64-13.29,4.04-2.85.87-5.74,1.75-8.6,2.62-43.98,13.39-82.82,26.43-115.44,38.77-8.03,3.03-15.88,6.1-23.35,9.11-5.49,2.21-12.84,4.7-16.67,3.98l-.17-.03c-1.44-.32-1.95-1.09-2.12-1.67-.45-1.5.71-3.72,3.34-6.44,8.99-9.23,18.03-18.8,24-26.87-1.91,1.46-3.84,2.96-5.77,4.49l-.54.42c-6.65,5.18-13.07,10.41-19.62,16-9.77,8.34-19.2,16.96-28.03,25.63-.54.53-1.11,1.06-1.69,1.59l-.16.15-.22-.04c-16.07-2.75-32.76-5.26-49.63-7.47-.69-.09-1.38-.18-2.07-.26l-2.32-.29.33-.58c5.92-10.44,9.66-18.48,11.44-24.56,2.82-11.4.33-17.14-3.49-24.01l-.36-.66c-1.11-2-2.25-4.07-3.25-6.38l-1.77-3.16c-1.44-2.58-3.15-5.49-4.97-7.82-8.64,10.54-21.01,28.46-30.22,47.68l-.41.88c-2.34,5.04-4.08,9.56-5.34,13.82l-.1.36-.37-.04c-15.23-1.58-31.18-3-47.4-4.23l-.56-.04.17-.54c6.85-21.51,8.65-35,5.65-42.43l-.06-.16c-1.63-4.64-4.27-7.26-7.62-7.57-6.73-.63-19.8,8.79-37.76,27.24-2.8,2.89-5.83,6.11-9.26,9.84-3.75,4.08-7.36,6.23-10.18,6.04-.38-.03-.74-.09-1.08-.2-3.03-.95-4.37-4.9-3.58-10.56.58-4.09.97-7.71,1.16-10.76v-.14c.24-3.23.3-6.02.17-8.35-5.04,10.19-9.37,23.53-12.16,33.14l-.1.33h-.35c-17.33-.63-34.86-1.02-52.11-1.18h-.49s.05-.49.05-.49c1.05-9.93,2.05-20.43,2.97-31.21.69-8.91.73-14.06.62-16.94-1.32,1.08-3,2.55-5.09,4.47l-1.82,1.68c-1.7,1.57-3.46,3.2-5.29,4.81-12.38,11.47-24.3,23.35-35.41,35.29-.51.54-1.01,1.09-1.51,1.63l-.81.88h-.19c-5.95.09-11.79.2-17.37.33h-.32s-.11-.3-.11-.3c-.76-2.15-1.3-4.46-1.6-6.87-1.28-10.33-2.88-18.29-4.87-24.29-.78,3.13-1.67,8.11-2.1,15.55v.22c-.3,4.5-.46,9.57-.5,15.51v.43s-.43.01-.43.01c-28.58.81-57.17,2.24-84.98,4.28l-.37.03-.09-.36c-1.16-4.54-2.44-8.74-3.8-12.47-.42-1.14-.84-2.24-1.26-3.27-.68.63-1.42,1.42-2.19,2.37-.86,1.05-1.97,1.63-3.3,1.71-1.98.13-4.38-.89-6.93-2.93-4.14-3.33-8.27-8.91-11.06-14.94-1.58-3.44-3.17-6.57-4.74-9.33-.06.48-.11,1-.15,1.53-.46,9.02,3.28,24.93,7,39.3l.13.51-.53.05c-19.83,1.76-39.54,3.86-58.6,6.24l-.21.03-.15-.15c-2.09-2.02-3.78-2.2-10.12-2.09h-.65s-.06.01-.1.01c-3.56,0-9.06-3.19-15.14-8.77-6.15-5.68-11.2-12.25-13.18-17.14-.83-2.08-1.62-4.12-2.39-6.1l-.6-1.54c-1.08-2.79-2.25-5.77-3.61-8.9l-.1-.24c-5.51-13.19-13.9-29.05-25.62-48.47l-.11-.18c-3.1-5.23-6.05-10.01-8.78-14.22h-.09c-6.56.79-13.75,0-19.99-.82-1.67-.22-3.56-.65-5.61-1.28-.86-.26-1.72-.53-2.57-.79l-1.09-.34c-1.52-.47-3.21-.99-4.43-1.33-.06,1.71,1.55,8.8,19.93,36.16,10.45,14.9,22.22,29.78,34.05,43.03l.33.38c1.88,2.15,3.78,4.24,5.68,6.35,1.47,1.63,2.95,3.27,4.45,4.95.55.62,1.1,1.24,1.65,1.86,5.27,6.06,7.82,11.72,6.65,14.78-.44,1.17-1.41,1.88-2.79,2.06-.15.02-.31.03-.47.04-1.3.06-2.44.15-3.48.29-3.61.47-5.95,1.48-6.76,2.92-.1.17-.21.33-.33.47-.37.44-.34,2.41,1,6.5l.16.49-.51.09c-17.24,2.91-33.96,6.12-49.67,9.53l-.28.06-.17-.24c-4.62-6.33-11.29-13.64-19.83-21.73-40.87-37.12-91.68-58.7-107.45-59.85-.33-.03-.67-.06-1.02-.1-4.09-.45-7.76-.36-10.91.28-5.96,1.13-9.57,3.75-10.73,7.8-3.37,11.79,13.6,35.91,46.56,66.17,2.77,2.65,5.56,5.31,8.35,7.97,6.69,6.37,13.6,12.96,20.14,19.41l.51.51-.68.23c-31.41,10.77-55.4,22.77-71.3,35.68-14.18,11.5-21.78,21.64-21.33,42.24.75,34.1,31.97,47.74,59.51,59.78,14.79,6.46,31.28,12.56,49.02,18.12l.67.21-.48.52c-11.31,12.21-23.45,23.37-34.17,33.21-5.62,5.16-10.92,10.03-15.28,14.32-21.19,19.59-44.07,41.91-53.17,58.99-4.68,8.53-5.89,15.73-3.49,20.83,1.77,3.77,5.38,6.2,10.75,7.24,1.63.32,3.41.5,5.28.54,2.38-.14,9.75-.56,39.95-17.61,6.36-3.62,13.81-8.17,21-12.81,10.6-6.81,23.84-12.94,32.94-15.28,3.33-.84,5.91-1.11,7.66-.8,1.35.24,2.22.83,2.57,1.74.5,1.27-.1,3.03-1.77,5.22-1.68,2.2-3.25,4.31-4.69,6.3,3.74-3.47,7.56-7.11,11.4-10.86,23.12-22.74,41.12-42.83,56.65-63.22,2.02-2.7,4-5.41,5.87-8.05l.17-.24ZM501.95,385.71c-1.02,0-2.06-.31-3.09-.91-1.58-.93-3.51-1.48-5.55-2.05-1.59-.45-3.29-.93-5.01-1.64-3.93-1.25-17.35-6.8-23.69-25.29l-.2-.59h.63c13.74.02,27.7-.08,41.49-.27h.38s.06.37.06.37c.54,3.3,1.11,6.45,1.69,9.36h0c1.25,6.34.9,12.51-.95,16.49-1.32,2.87-3.34,4.48-5.66,4.52-.03,0-.07,0-.1,0ZM465.67,356.12c6.28,17.63,19.12,22.94,22.94,24.15,1.71.71,3.38,1.18,4.86,1.6,2.19.62,4.17,1.18,5.85,2.17.91.54,1.82.81,2.72.78,1.97-.04,3.7-1.46,4.87-4.01,1.77-3.82,2.1-9.78.88-15.95-.56-2.81-1.11-5.84-1.64-9.01-13.45.18-27.07.29-40.48.26ZM377.67,382.62c-.08,0-.17,0-.25,0-1.12-.05-2.11-.47-2.95-1.23-1.51-1.38-3.46-2.25-5.53-3.16-9.38-3.69-14.4-9.45-14.25-29.35v-.48s.48.03.48.03c8.35.59,16.61,1.13,24.55,1.59,3.5.21,7.32.36,12.39.51h.45s-.02.46-.02.46c-.1,2.51-.2,4.98-.28,7.43h0c-.23,6.66-2.76,14.07-6.45,18.88-2.59,3.39-5.54,5.31-8.14,5.31ZM355.58,349.36c-.07,19.1,4.55,24.44,13.62,28,2.24.99,4.25,1.88,5.87,3.36.68.62,1.48.96,2.39,1,2.33.12,5.18-1.74,7.63-4.96,3.59-4.68,6.05-11.89,6.27-18.37h0c.08-2.3.17-4.63.27-6.98-4.85-.14-8.56-.3-11.96-.5-7.79-.46-15.89-.98-24.09-1.56ZM895.55,377.68c-2.17,0-5.07-.4-8.44-1.18-2.03-.47-5.21-.83-8.02-1.15l-.44-.05c-3.2-.36-6.37-.74-10.01-1.39-30.88-4.21-64.95-21.83-81.32-36.27-.25-.21-.5-.43-.75-.65-1.15-1.02-2.32-2.12-3.7-3.45l-.63-.61.87-.15c15.96-2.71,31.56-5.7,46.35-8.87l.21-.05.17.14c14.22,11.78,31.03,23.88,48.61,35h0c3.87,2.46,7.93,4.99,12.07,7.5,4.79,2.9,10.33,6.9,9.5,9.44-.24.74-.96,1.25-2.13,1.52-.64.15-1.44.22-2.36.22ZM784.15,333.52c1.1,1.06,2.07,1.96,3.03,2.81.24.21.49.43.74.64,16.28,14.36,50.15,31.88,80.87,36.06,3.63.65,6.79,1.03,9.97,1.39l.44.05c2.83.32,6.03.68,8.12,1.16,4.67,1.08,8.36,1.42,10.39.96.58-.13,1.31-.4,1.48-.92.38-1.16-1.81-3.98-9.11-8.4-4.14-2.52-8.21-5.05-12.08-7.51-17.54-11.1-34.32-23.17-48.54-34.93-14.47,3.1-29.71,6.03-45.31,8.69ZM94,374.36c-1.51,0-2.87-.12-4.07-.37-3.29-.63-5.36-2.12-6.13-4.43-2.88-8.57,13.28-28.09,29.45-46.05l3.43-4.11c2.01-2.41,4.06-4.85,6.11-7.33l.19-.23.28.08c18.44,5.32,38.51,10.2,59.66,14.49l.64.13-.35.55c-2.93,4.61-8.22,9.73-14.17,13.71h0c-3.07,2.06-6.42,4.29-10.17,6.69-16.66,10.91-42.26,24.39-59.58,26.45-1.92.28-3.69.41-5.29.41ZM123.3,312.88c-1.99,2.4-3.97,4.77-5.93,7.11l-3.44,4.12c-16.02,17.78-32.01,37.05-29.28,45.18.67,2,2.46,3.26,5.45,3.84,2.39.48,5.44.46,9.07-.06,17.17-2.04,42.63-15.45,59.21-26.31,3.75-2.4,7.1-4.63,10.16-6.69h0c5.62-3.75,10.63-8.53,13.56-12.9-20.83-4.25-40.61-9.06-58.8-14.3ZM261.41,352.9c-.67,0-1.33-.04-1.99-.11-1.41-.16-2.71-.45-3.76-.69-.8-.18-1.62-.37-2.26-.44-.19-.02-.32-.03-.4-.03-.77.2-1.56.27-2.26.19-.39-.05-.75-.14-1.08-.28-.61-.05-2.21.21-3.49.41l-.14.02c-2.59.4-5.8.91-8.65.56-2.63-.32-4.5-1.36-5.54-3.1-1.68-2.78-1.28-7.3,1.2-13.8l.13-.34.36.05c15.27,2.32,31.19,4.44,47.31,6.29l.86.1-.64.71c-6.63,6.94-13.23,10.45-19.65,10.45ZM253.09,350.75c.13,0,.26,0,.42.03.68.08,1.53.27,2.35.45,1.02.23,2.3.52,3.66.67,6.57.76,13.41-2.44,20.32-9.48-15.7-1.81-31.21-3.87-46.09-6.13-2.24,5.97-2.62,10.23-1.15,12.68.91,1.51,2.51,2.38,4.88,2.67,2.73.34,5.88-.16,8.41-.55l.14-.02c1.53-.24,3.11-.48,3.79-.41l.13.04c.26.12.56.2.89.24.59.07,1.28,0,2.05-.19.07,0,.13,0,.19,0ZM502.14,340.81c-13.36,0-26.87-.14-40.2-.41h-.4s-.03-.41-.03-.41c-.92-11.73.63-23.34,2.27-33.15l.07-.42.42.05c5.38.59,10.19.03,11.97-1.39.92-.74,4.08-5.71,4.16-7.04.13-2-2.2-21.02-2.74-22.37-.93-2.33-3.97-6.01-6.83-9.3l-.13-.15.02-.2c.6-5.21.82-9.38.67-12.74v-.17c-.36-8.45-2.69-21.09-4.74-32.25l-.02-.13c-1.27-6.91-2.59-14.05-3.77-21.35l-.04-.22,7.6-8.06c1.27-1.01,2.23-1.39,3.06-1.27.92.14,1.44.89,1.89,1.56.32.47.63.92,1.02,1.06h33.39l.02.42c1.82,32.29.55,64.46-.68,95.56l-.02.55-.54-.14c-.35-.09-.66-.13-.89-.13h0c-.78,0-1.46.33-2.08.97-1.72,1.78-3.68,6.93-3.3,21.32.41,9.04,1.28,19.18,2.54,29.31l.06.5h-.51c-.74,0-1.49,0-2.23,0ZM462.36,339.52c13.77.28,27.7.42,41.5.4-1.22-9.99-2.08-19.96-2.48-28.88-.31-11.81.88-19.2,3.55-21.97.78-.81,1.69-1.23,2.71-1.25h0c.19,0,.38.01.59.04,1.21-30.78,2.45-62.6.68-94.53l-32.75-.02c-.72-.21-1.14-.83-1.55-1.44-.38-.56-.75-1.09-1.29-1.18-.55-.08-1.33.27-2.32,1.05l-7.25,7.7c1.17,7.22,2.47,14.28,3.73,21.12l.02.13c2.06,11.18,4.39,23.86,4.75,32.38l-.44.18.45-.02c.15,3.37-.06,7.53-.65,12.69,2.87,3.31,5.89,6.99,6.85,9.41.67,1.69,2.91,20.98,2.8,22.76-.1,1.6-3.39,6.81-4.49,7.69-1.93,1.54-6.69,2.17-12.2,1.63-1.58,9.56-3.05,20.79-2.22,32.12ZM511.87,340.8l-.06-.38c-2.01-12.05-3.32-20.13-4.01-24.7-.07-.37-.13-.75-.18-1.13-1.07-7.39-.31-12.49.52-15.47l.41-1.46.46,1.43c1.44,4.64,3.88,6.89,7.93,7.28,16.12,1.57,25.24-.72,27.1-6.8,4.33-30.13,5.63-61.98,3.97-97.31l-.04-.94.76.56c.53.39.98.88,1.39,1.5,1.99,2.99,3.02,8.74,2.73,15.38-1.69,37.91,1.34,70.55,4.58,100.73l.02.19c.71,6.72,1.28,13.22,1.74,19.85l.03.46h-.47c-15.29.46-30.94.72-46.51.8h-.38ZM508.65,300.79c-.64,3.01-1.04,7.53-.15,13.67.06.37.12.75.18,1.12.68,4.52,1.97,12.48,3.94,24.32,15.28-.08,30.63-.34,45.64-.77-.45-6.46-1.01-12.8-1.71-19.36l-.02-.15c-3.25-30.25-6.28-62.92-4.59-100.89.28-6.46-.69-12.01-2.58-14.85-.13-.2-.27-.39-.42-.56,1.58,34.95.26,66.51-4.04,96.45-3.04,9.93-21.87,8.1-28.06,7.5-4.01-.39-6.59-2.4-8.2-6.47ZM443.31,339.94h-.4c-13.35-.41-27.04-.97-40.7-1.67l-.44-.02v-.44c.2-6.28.27-11.73.24-16.64h0c-.03-4.99.93-10.5,2.63-15.13l.11-.29h.31c6.01-.1,7.16-.69,7.37-.87,4.24-3.66,2.45-10.23.45-16.09l-.03-.1v-.1c.17-1.32.25-2.52.24-3.56-.17-5.66-1.28-8.85-3.54-13.45-.58-1.19-1.29-2.27-2.09-3.2l-.1-.2c-.76-3.55-1.1-5.77-1.04-6.76.11-2.05,2.56-4.66,4.19-6.38l.74-.79,35.89,42.12v.18c-.7,16.16-1.93,30.22-3.76,43.01l-.06.4ZM402.69,337.41c13.37.68,26.77,1.22,39.84,1.62,1.79-12.6,2.99-26.46,3.68-42.35l-35.01-41.09-.06.06c-1.44,1.53-3.85,4.1-3.94,5.82-.05.89.29,3.05,1,6.42.82.97,1.55,2.08,2.14,3.3,2.32,4.72,3.45,7.99,3.63,13.83,0,1.06-.07,2.26-.22,3.58,2.08,6.12,3.89,12.96-.75,16.96-.28.24-1.11.96-7.63,1.08-1.6,4.47-2.5,9.74-2.48,14.52h0c.04,4.81-.03,10.13-.21,16.24ZM566.7,339.75l-.09-.34c-.44-1.63-.8-3.07-1.11-4.41-.15-.69-.29-1.37-.4-2.04-1.78-10.98.49-16.37,2.9-22.08l.16-.38h0c.13-.39.52-1.24.53-1.25.9-2.04,2.12-5.05,3.74-9.16,1.13-2.88,2.78-3.54,3.95-3.59,2.49-.06,5.2,2.35,7.74,6.88,4.1,7.33,8.46,15.59,12.95,24.57.13.26.26.52.38.78,1.44,3.01,2.89,5.98,4.34,8.93l.3.61-.68.03c-10.92.56-22.48,1.05-34.36,1.44h-.35ZM576.52,297.38s-.07,0-.1,0c-1.65.06-2.63,1.68-3.16,3.02-1.62,4.13-2.85,7.14-3.76,9.21-.03.08-.5,1.17-.52,1.22l-.16.38c-2.46,5.83-4.58,10.86-2.84,21.59.11.66.24,1.32.39,1.99.28,1.23.61,2.56,1,4.04,11.5-.38,22.7-.85,33.31-1.39-1.35-2.75-2.7-5.53-4.04-8.33-.12-.26-.25-.51-.37-.76-4.48-8.96-8.83-17.22-12.93-24.53-2.29-4.09-4.77-6.43-6.82-6.43ZM393.04,337.78l-.45-.03c-12.6-.71-24.97-1.52-36.77-2.42l-.45-.03.04-.45c.67-7.94,1.82-17.55,3.51-29.36l.06-.41.71.05c.94.06,1.89.13,2.82.21,2.53.1,4.46-.63,5.7-2.16,1.77-2.2,2.11-6.05.93-10.57-.34-1.31-4.3-9.71-6.8-14.74l-.06-.11v-.13c2.71-31.4,2.2-60.76-1.57-89.76l-.02-.14.06-.12c2.69-5.24,8.4-17.14,8.61-17.94.97-3.73.71-7.36-.7-9.72-.92-1.55-2.31-2.57-4.14-3.02l-.4-.1.13-.72c1.43-8.66.82-22.43-1.64-36.84l-.08-.49.49-.04c26.64-1.94,54.28-3.33,82.15-4.11h.45s0,.44,0,.44c.05,2.49.1,4.85.14,6.99v.28c.13,5.45-.87,10.42-2.75,13.62-4.38,7.23-7.3,16.81-7.32,40.08v.19l-29.61,29.01.11-1.21c.67-7.48,2.49-14.96,4.24-22.19l.51-2.1c.54-2.22,1.22-4.19,1.88-6.09,1.93-5.53,3.45-9.91-.29-16.36-5.66-1.6-12.3-1.06-18.72-.52-2.76.23-5.62.46-8.3.51-.75.79-1.7,1.43-2.63,2.06-1.3.88-2.52,1.71-3.21,2.88-2.07,3.5-6.52,17.68-7.91,22.44-9.69,33.34-8.29,72.27,3.75,104.16.31.83.62,1.71.94,2.61,1.87,5.34,3.99,11.39,9.24,13.1.98.32,4.13.67,8.23.93l.44.03-.02.44c-.37,7.97-.77,17.66-1.29,31.41l-.02.45ZM356.34,334.48c11.52.87,23.57,1.67,35.85,2.36.5-13.26.89-22.72,1.26-30.52-4.01-.26-6.98-.61-8.01-.94-5.67-1.84-7.87-8.12-9.81-13.65-.31-.89-.62-1.76-.93-2.59-5.49-14.53-8.77-30.53-9.82-46.79-.09,11.51-.65,23.22-1.68,35.23,2.49,5.02,6.44,13.4,6.81,14.8,1.25,4.8.85,8.94-1.1,11.36-1.42,1.77-3.59,2.59-6.45,2.5-.91-.08-1.81-.14-2.71-.2-1.63,11.39-2.74,20.71-3.41,28.45ZM361.62,187.88c1.57,12.09,2.57,24.23,3.01,36.56.5-13.69,2.59-27.27,6.3-40.04,1.04-3.56,5.72-18.8,8-22.65.79-1.34,2.16-2.27,3.48-3.16.98-.66,1.9-1.29,2.6-2.06l.13-.14h.19c2.7-.04,5.48-.27,8.43-.51,6.57-.54,13.36-1.1,19.22.61l.17.05.09.15c4.06,6.89,2.39,11.7.45,17.26-.65,1.88-1.33,3.82-1.86,6l-.51,2.1c-1.65,6.81-3.36,13.83-4.1,20.84l27.6-27.04c.03-23.34,3-33.02,7.44-40.35,1.76-3.01,2.75-7.93,2.63-13.14v-.28c-.05-2.01-.1-4.21-.14-6.54-27.53.79-54.83,2.15-81.17,4.06,2.4,14.28,2.99,27.91,1.58,36.57,1.86.56,3.3,1.67,4.28,3.32,1.54,2.6,1.83,6.39.79,10.4-.24.94-5.96,12.82-8.61,18ZM626.75,336.81l-.14-.21c-6.08-8.98-10.82-17.09-14.47-24.8-.73-1.38-1.63-3.18-2.81-5.67l-.27-.58.64-.06c.76-.07,1.34-.14,1.7-.21,6.55-1.25,10.94-15.61,12.82-21.74l.09-.28c1.85-6.04,3.12-12.39,4.35-18.54.86-4.3,1.75-8.74,2.83-13.03l.09-.36,12.32.75.12.21c7.11,12.13,11.8,24.19,13.93,35.84.33,1.78.29,3.39.25,4.95-.07,2.97-.14,5.54,2.4,8.33,2.21,2.43,7.17,3.65,12.94,3.15l.34-.03.12.33c3.28,9.24,7.01,18.51,10.3,26.69l.22.55-.59.06c-18.61,1.82-37.76,3.38-56.92,4.63l-.25.02ZM610.41,306.31c1.04,2.19,1.85,3.81,2.52,5.07v.02c3.61,7.61,8.28,15.62,14.27,24.48,18.86-1.23,37.71-2.77,56.04-4.56-3.2-7.95-6.79-16.9-9.98-25.85-5.9.43-10.99-.89-13.34-3.47-2.78-3.06-2.71-5.92-2.64-8.96.04-1.51.08-3.08-.23-4.77-2.1-11.48-6.71-23.37-13.7-35.34l-11.1-.68c-1.03,4.16-1.89,8.46-2.73,12.63-1.23,6.17-2.51,12.54-4.37,18.62l-.09.28c-2.09,6.82-6.43,21-13.51,22.36-.28.05-.67.11-1.15.16ZM340.44,334.11l-.35-.03c-13.94-1.18-27.85-2.53-41.34-3.99l-.49-.05.1-.48c1.71-8.35,3.15-16.48,4.26-24.18l.06-.39h.4c7.54.17,15.46.02,23.12-.14,7.17-.14,14.58-.29,21.73-.18h.53s-.1.53-.1.53c-.34,1.73-.69,3.47-1.06,5.21-.04.2-.09.41-.13.61-1.75,7.59-3.91,15.04-6.62,22.77l-.11.33ZM299.34,329.25c13.21,1.43,26.83,2.75,40.48,3.91,2.64-7.58,4.77-14.9,6.48-22.35.05-.2.09-.4.13-.59.33-1.57.65-3.12.95-4.67-6.97-.1-14.18.05-21.16.19-7.54.15-15.32.31-22.77.16-1.09,7.45-2.47,15.31-4.12,23.36ZM698.6,330.66l-.15-.22c-5.74-8.56-10.81-18.06-15.06-28.24l-.15-.36.33-.2c1.14-.69,2.04-1.45,2.68-2.27.6-2.83,3.28-6.67,5.87-10.37,2.29-3.27,4.45-6.36,4.83-8.28,1.57-8.01-2.75-17.37-6.56-25.62-1.32-2.86-2.57-5.57-3.52-8.08l-.15-.38.37-.18c11.64-5.54,19.05-14.36,21.43-25.5,2.71-12.66-1.48-26.67-11.49-38.42-3.31-3.89-7.02-7.38-11.03-10.39l-.32-.24.2-.34c2.3-4.02,5.47-7.79,8.7-10.34.14-.11.29-.22.43-.32l1.33-.99-.46,1.36c-1.97,5.88.2,8.47,3.22,12.05,1.14,1.36,2.44,2.9,3.59,4.77,12.04,19.61,19.62,37.68,17.51,62.09-.4,4.64-1.56,10.06-2.79,15.8-2.58,12.05-5.5,25.72-1.81,35.37.48,1.26,6.14,9.21,6.73,9.66.51.27,8.34,2.74,9.51,2.99,3.44.74,7.31,1.09,11.38,1.09h.26s.13.22.13.22c3.27,5.5,6.96,11.27,11.3,17.62l.4.59-.71.1c-3.71.55-7.91,1.17-12.03,1.73l-.06-.44.06.44c-14.05,1.9-28.75,3.68-43.7,5.28l-.27.03ZM684.36,302.2c4.16,9.9,9.1,19.15,14.68,27.51,14.85-1.59,29.45-3.36,43.4-5.25,3.86-.52,7.79-1.1,11.32-1.62-4.12-6.05-7.65-11.57-10.8-16.85h-.05c-4.06,0-7.84-.37-11.26-1.11-.98-.21-9.24-2.75-9.8-3.11-.88-.55-6.66-9-7.08-10.09-3.78-9.9-.83-23.7,1.77-35.88,1.22-5.71,2.37-11.1,2.77-15.69,2.09-24.17-5.44-42.08-17.38-61.55-1.11-1.81-2.33-3.26-3.51-4.66-2.74-3.26-5.14-6.11-3.78-11.57-2.88,2.39-5.68,5.75-7.79,9.34,3.94,2.99,7.59,6.44,10.86,10.28,10.19,11.97,14.45,26.25,11.68,39.19-2.42,11.31-9.87,20.27-21.55,25.94.92,2.38,2.1,4.94,3.35,7.64,3.87,8.38,8.25,17.87,6.62,26.17-.41,2.1-2.63,5.26-4.97,8.62-2.57,3.68-5.23,7.48-5.75,10.14l-.08.18c-.65.86-1.54,1.66-2.66,2.37ZM290.34,329.13l-2.41-.27c-.94-.1-1.88-.21-2.82-.32-14.85-1.74-30.02-3.82-45.08-6.17l-.62-.1.3-.56c.85-1.59,1.75-3.26,2.7-5.01,4.19-7.75,8.94-16.53,13.55-26.83l.07-.17c1.92-3.78,3.86-8.46,5.78-13.93l.34-.96.48.9c2.79,5.27,6.08,10.46,9.77,15.43.43.58.85,1.15,1.25,1.7,4.54,6.2,7.82,10.68,16.6,11.46,2.11.19,4.37.34,7.11.46l.51.02-.09.5c-.41,2.3-.81,4.32-1.22,6.18-1.38,6.27-3.42,12.11-6.07,17.37l-.14.28ZM240.79,321.58c14.85,2.31,29.79,4.35,44.43,6.07.93.11,1.87.21,2.81.32l1.79.2c2.55-5.12,4.52-10.79,5.85-16.88.38-1.71.75-3.56,1.13-5.64-2.53-.12-4.65-.27-6.64-.44-9.18-.82-12.56-5.43-17.24-11.82-.41-.55-.82-1.12-1.25-1.7-3.51-4.72-6.65-9.65-9.36-14.65-1.82,5.1-3.66,9.49-5.48,13.06l-.07.15c-4.63,10.32-9.38,19.12-13.58,26.89-.83,1.54-1.63,3.02-2.4,4.45ZM232.49,321.17l-.29-.05c-10.46-1.71-20.98-3.56-31.25-5.52l-.64-.12.35-.55c10.25-16.42,16.96-31.6,20.51-46.4.43-1.86.82-3.7,1.14-5.48,1.07-5.77,1.52-11.79,1.28-16.94v-.26s.21-.14.21-.14c21.08-12.97,30.56-47.39,32.25-54.16,2.56-10.28,1.93-18.2-1.89-23.55-3.39-4.75-9.38-7.52-17.79-8.25-15.53-1.34-45.08.61-50.84,1.01-13.63.95-19.96,6.39-29.16,15.18-4.71,4.5-8.94,9.16-12.56,13.86l-.39.51-.34-.54c-1.93-3.08-4.03-6.24-6.4-9.67l-.1-.15.03-.18c.56-3.35,1.09-11.51-5.92-15.12l-6.08-1.23-4.15-5.59.65-.16c6.59-1.63,13.28-3.34,19.75-5,16.29-4.18,33.14-8.51,49.97-11.77,10.87-2.1,22.1-4.11,34.35-6.12l.31-.05.15.28c2.35,4.29,4.96,8.27,7.53,11.52.04.05.54.69.54.69.33.42.65.84.96,1.26,1.32,1.79,4.61,3.34,7.04,3.81,3.2.61,7.44,3.68,11.05,7.99,3.63,4.32,6.42,9.69,7.47,14.37.88,3.88,1.69,7.91,2.41,11.99l.03.15-.07.13c-13.68,26.48-15.05,54.33-3.94,80.52l.06.15-.05.16c-4.98,16.19-13.73,34.09-26.02,53.19l-.16.25ZM201.76,314.84c9.97,1.89,20.16,3.69,30.3,5.35,12.12-18.88,20.77-36.57,25.71-52.57-11.13-26.36-9.76-54.36,3.96-81-.7-4.01-1.5-7.98-2.37-11.8-1.02-4.55-3.74-9.78-7.28-13.99-3.49-4.17-7.52-7.11-10.54-7.69-2.56-.5-6.09-2.12-7.59-4.16-.3-.41-.61-.82-.94-1.23,0,0-.49-.62-.54-.68-2.55-3.22-5.13-7.15-7.47-11.37-12.12,2-23.25,3.98-34.01,6.07-16.8,3.25-33.63,7.58-49.91,11.76-6.26,1.61-12.72,3.27-19.11,4.85l3.15,4.23,5.92,1.22c5.31,2.7,7.66,8.49,6.48,15.91,2.2,3.18,4.16,6.14,5.97,9.01,3.56-4.56,7.68-9.08,12.26-13.45,9.37-8.96,16.05-14.46,29.71-15.42,5.78-.4,35.38-2.35,50.98-1.01,8.68.75,14.89,3.65,18.44,8.62,3.98,5.56,4.66,13.73,2.03,24.28-4.9,19.67-15.99,44.29-32.42,54.56.22,5.23-.23,11.06-1.3,16.88-.32,1.79-.71,3.65-1.15,5.52-3.54,14.73-10.18,29.82-20.28,46.12ZM771.8,320.93l-.16-.22c-3.97-5.36-7.38-11.01-10.42-17.28l-.24-.51.55-.13c11.7-2.69,24.25-7.75,35.34-14.23l.42-.25.21.45c1.78,3.83,5.87,10.41,15.26,20,1.07,1.04,2.22,2.12,3.39,3.22l.63.59-.85.17c-15.13,3.09-29.88,5.83-43.86,8.14l-.27.04ZM762.26,303.55c2.91,5.93,6.17,11.31,9.93,16.42,13.62-2.26,27.98-4.92,42.71-7.91-.96-.9-1.89-1.79-2.78-2.65-9.13-9.33-13.32-15.86-15.23-19.81-10.89,6.31-23.15,11.25-34.62,13.96ZM190.81,313.62l-.34-.07c-19.26-3.85-38.64-8.24-57.59-13.03l-.66-.17.42-.54c.93-1.21,1.86-2.43,2.77-3.66l.1-.1c.38-.28.67-.52.94-.78,1.67-1.67,2.8-3.4,3.44-5.31l.06-.11c2.84-4.1,5.36-8.1,7.51-11.9l.31-.55.67.77c.1.11.19.23.29.34,3.97,4.42,17.17,16.97,24.76,21.24l.19.1c1.63.9,2.88,1.35,3.73,1.35h18.27l-.11.54c-.07.32-.13.64-.21.97-.07.27-.14.54-.23.82l-.12.39c-.09.27-.18.55-.29.83-.91,2.46-2.17,5.34-3.75,8.54l-.15.31ZM133.76,299.82c18.61,4.7,37.63,9,56.55,12.79,1.5-3.05,2.7-5.8,3.56-8.15.1-.27.19-.53.27-.79l.12-.39c.08-.26.15-.51.21-.76.03-.14.06-.27.09-.4h-17.18c-.97,0-2.26-.44-3.93-1.34l-.64.39-.03-.76c-7.71-4.45-20.78-16.88-24.73-21.28-.05-.06-.1-.11-.15-.17-2.08,3.64-4.5,7.46-7.2,11.37-.69,2.02-1.88,3.85-3.64,5.59-.29.29-.59.54-.99.83-.77,1.03-1.54,2.05-2.32,3.07ZM822.12,311.49l-2.74-2.27c-.84-.7-1.61-1.33-2.28-1.88-.54-.44-1.06-.89-1.56-1.33-1.47-1.33-2.71-2.58-3.8-3.81l-.72-.81,1.08.07c3.34.2,8.85-.45,12.49-.88,1.53-.18,2.74-.32,3.44-.37,1.43-.09,2.89.01,4.45.12,2.95.2,6,.41,9.12-.65,1.6-.54,11.33-7.72,13.6-9.57,11.53-9.39,21.51-21.19,27.36-32.38l.6-1.14.24,1.27c.8,4.25-3.26,10.36-5.69,14l-.39-.21.37.25c-1.05,1.58-3.57,4.2-6.5,7.24-6.32,6.57-15.84,16.47-13.78,20.07,1.51.6,3.03.39,4.63.17.83-.12,1.7-.23,2.57-.23h0c.23,0,.52-.03.83-.06,1.07-.1,2.28-.22,2.9.43.28.29.39.69.32,1.18l-.04.3-.29.07c-15.79,3.8-31.26,7.29-45.98,10.37l-.21.04ZM813.11,302.39c.89.96,1.89,1.93,3.02,2.96.48.43,1,.87,1.53,1.3.68.56,1.44,1.19,2.28,1.89l2.4,1.99c14.54-3.04,29.82-6.49,45.4-10.24-.02-.09-.06-.13-.08-.15-.31-.33-1.43-.23-2.17-.16-.34.03-.66.06-.91.06h0c-.81,0-1.64.11-2.44.23-1.7.23-3.45.47-5.23-.29l-.12-.05-.07-.11c-2.72-4.09,6.44-13.63,13.81-21.29,2.89-3.01,5.39-5.61,6.4-7.12l.02-.03c1.92-2.89,5.29-7.95,5.62-11.78-5.99,10.86-15.68,22.16-26.81,31.22-2.07,1.68-12.05,9.1-13.88,9.72-3.29,1.11-6.43.9-9.47.69-1.52-.1-2.96-.2-4.33-.12-.68.04-1.88.18-3.39.36-3.31.39-8.17,1-11.58.92ZM809.46,299.43l-.66-1.36c-.72-1.48-.85-2.7-.4-3.61.34-.69,1-1.15,1.9-1.33l.84-.17-.34.78c-.59,1.37-.98,2.78-1.15,4.19l-.19,1.5ZM809.59,294.39c-.15.12-.29.27-.38.47-.17.33-.21.76-.13,1.25.14-.58.31-1.15.51-1.72ZM391.13,293.01l-.13-.32c-16.01-38.5-16.33-82.48-.86-120.65l.09-.14,1.63-1.69,8.28-.14-.67,2.27c-1.9,6.49-4.06,13.85-5.32,20.4-1.47,7.71-4.92,28.84-3.21,33.92.2.59.8,1.08,1.77,1.45,3.04,1.15,8.8.66,10.41-.28.11-.09.4-.63.62-1.02.41-.75.92-1.68,1.51-2.25,10.18-9.83,20.32-19.69,30.45-29.55l.66-.65.09.92c.31,3.1.62,4.88.82,5.8.19-.07.45-.2.78-.43.65-.45,1.34-.69,2.04-.69.82-.03,1.62.3,2.41.92l.39.3-19.33,20.14c-1.68,6.65,3.42,12.2,7.93,17.1,1.44,1.57,2.81,3.05,3.94,4.54,1.66,2.17,4.81,5.98,8.46,10.39,1.25,1.51,2.56,3.09,3.88,4.69l.1.13v.16c-.04,5.69-.11,11.32-.19,16.86l-.02,1.19-31.26-36.9c-2.1-1.7-6.7-2.02-9.37-1.13-.77.26-4.18,4.68-6.92,8.23-2.93,3.8-5.96,7.73-7.47,8.98.02,7.96,1.9,16.1,3.53,22.32l.02.08v.08c-.39,3.33-.75,7.94-1.13,14.09l-.02.37-3.93.5ZM390.93,172.46c-15.3,37.84-15.02,81.4.76,119.58l2.52-.32c.36-5.93.72-10.41,1.09-13.68-1.66-6.32-3.55-14.59-3.54-22.68v-.22s.18-.13.18-.13c1.35-1,4.46-5.05,7.48-8.95,3.91-5.07,6.36-8.2,7.34-8.53,2.9-.97,7.83-.65,10.28,1.34l29.78,35.13c.07-5.1.13-10.27.17-15.5-1.29-1.56-2.56-3.1-3.77-4.57-3.66-4.42-6.81-8.23-8.48-10.41-1.11-1.45-2.46-2.92-3.89-4.48-4.68-5.1-9.99-10.87-8.11-18.05l.03-.11,18.79-19.57c-.49-.3-.99-.45-1.44-.44-.52,0-1.03.18-1.53.53-.61.43-1.16.66-1.61.68l-.37.02-.09-.36c-.17-.71-.5-2.32-.84-5.43-9.92,9.65-19.84,19.29-29.79,28.91-.49.48-.97,1.34-1.35,2.04-.43.78-.67,1.2-.96,1.36-1.79,1.04-7.76,1.63-11.18.34-1.24-.47-2.01-1.14-2.3-2-2.15-6.35,3.12-34.1,3.18-34.38,1.26-6.59,3.42-13.97,5.34-20.48l.32-1.11-6.69.11-1.31,1.36ZM531.51,292.98l-9.33-.02-.07-.36c-.25-1.2.08-2.36.4-3.47.22-.78.43-1.52.41-2.19-.29-12.27.16-25.77.59-38.82.65-19.64,1.32-39.95-.35-57.77-.28-3.01-1.66-10.13-8.36-11.19-5.92-.94-15.33-.62-28.78.96l-.5.06v-11.12s61.67,0,61.67,0l-.2.59c-1.04,2.99-2,6.1-2.86,9.23l-.09.32h-.33c-1.51.04-2.62.16-3.3.37-8.57,2.61-7.16,12.46-5.92,21.14.36,2.5.69,4.86.75,6.86.85,29.39-.39,57.99-3.68,85.02l-.05.39ZM522.93,292.07l7.78.02c3.25-26.87,4.47-55.29,3.63-84.49-.06-1.95-.39-4.28-.74-6.76-1.23-8.59-2.76-19.29,6.54-22.12.71-.22,1.77-.35,3.21-.39.78-2.84,1.65-5.65,2.58-8.37h-59.54v9.22c13.28-1.54,22.61-1.84,28.54-.9,5.08.8,8.48,5.29,9.11,11.99,1.68,17.87,1.01,38.22.36,57.89-.43,13.04-.88,26.53-.59,38.77.02.81-.22,1.64-.45,2.45-.25.89-.51,1.81-.43,2.7ZM350.74,291.9l-46.34-.88.15-1.51c.09-.89.18-1.79.26-2.67h0c.13-1.54.23-3.09.33-4.63l.03-.42,44.23.06,2.06,5.18-.05.32c-.2,1.39-.4,2.78-.62,4.17l-.06.39ZM305.39,290.14l44.59.85c.19-1.26.37-2.52.55-3.78v-.09s-1.74-4.4-1.74-4.4l-42.78-.05c-.09,1.41-.19,2.82-.31,4.23h0c-.08.89-.17,1.79-.26,2.69l-.05.54ZM602.57,291.87l-.13-.25c-1.02-2.02-1.89-3.66-2.67-5l-.09-.16.05-.18c5.81-22.53,7.98-45.97,6.43-69.67v-.1s.03-.09.03-.09c1.99-5.18,4.12-10.81,6.44-16.99.08-.22.17-.43.25-.64l1.38-3.54.3,1.5c.51,2.56,1.16,5.31,1.8,7.97,1.53,6.43,3.11,13.08,2.75,17.48.81.88,1.46,1.68,2.04,2.4,2.07,2.56,3.21,3.96,7.7,4.44,7.39.78,21.58.87,32.55-.33l.53-.06-.04.53c-.65,9.24-.51,18.24.42,26.76l.28,2.61-1.13-2.37c-3.67-7.7-9.16-17.09-14.49-18.07-3.04-.56-20.41-.58-22.95-.03-.51.32-4.62,4.83-4.99,5.79-1.58,4.09-2.53,10.43-3.46,16.55-.7,4.62-1.42,9.39-2.4,13.11-.05.17-5.04,17.48-6.17,18.18l-.1.06-4.33.09ZM600.63,286.32c.74,1.27,1.55,2.79,2.48,4.64l3.46-.07c.85-1.29,4.88-14.39,5.73-17.59.97-3.67,1.68-8.42,2.38-13.01.93-6.18,1.89-12.56,3.51-16.74.42-1.09,4.95-6.19,5.63-6.34,2.84-.62,20.55-.48,23.3.02,5.17.95,10.33,8.96,14.04,16.33-.69-7.67-.76-15.7-.21-23.92-10.95,1.15-24.89,1.05-32.21.28-4.87-.51-6.24-2.21-8.31-4.77-.6-.74-1.28-1.58-2.13-2.5l-.14-.15.02-.2c.41-4.25-1.18-10.93-2.71-17.38-.51-2.16-1.04-4.38-1.5-6.51l-.28.71c-.09.21-.17.42-.25.63-2.31,6.14-4.43,11.74-6.4,16.9,1.53,23.69-.63,47.13-6.42,69.67ZM735.99,291.38l-.94-.24c-4.42-1.12-6.95-3.57-7.53-7.26-.5-3.22-.53-6.78-.08-10.89l.22-2.04.65,1.95c1.11,3.35,2.36,6.68,3.71,9.9,1,2.34,2.16,4.87,3.55,7.71l.42.87ZM728.15,275.19c-.23,3.16-.14,5.98.26,8.56.48,3.08,2.42,5.13,5.92,6.25-1.21-2.49-2.23-4.74-3.13-6.85-1.09-2.6-2.11-5.27-3.05-7.97ZM299.67,290.93l-11.06-.21-.11-.27c-.96-2.36-2.56-4.14-4.25-6.03-.98-1.1-2-2.24-2.88-3.49-5.97-8.55-10.41-17.49-13.19-26.58l-.04-.12.03-.12c2.59-10.47,4.64-21.19,5.77-30.21.08-.5.18-.96.28-1.4.6-2.64,1.24-4.75,1.96-6.45l.74-1.77.12,1.92c.15,2.43,3.42,6.48,5.41,7.74,1.45.92,5.18,1.41,11.08,1.46h.32s.1.3.1.3c.83,2.38,1.59,5.01,2.27,7.81l.13.55-12.16.02c-2.57.41-4.5,1.61-5.65,3.57-3.64,6.15.71,18.2,3.05,24.67l.4,1.12c.32.91.64,1.84.96,2.79,2.45,7.27,4.98,14.79,13.54,15.58h3.76s-.02.47-.02.47c-.12,2.76-.29,5.54-.53,8.27l-.04.42ZM289.22,289.84l9.63.18c.2-2.42.36-4.89.47-7.35h-2.87c-9.18-.84-11.92-9-14.34-16.19-.32-.94-.63-1.87-.95-2.77l-.4-1.11c-2.39-6.61-6.83-18.92-2.98-25.43,1.3-2.19,3.43-3.54,6.35-4l11.09-.02c-.61-2.45-1.29-4.76-2.01-6.88-5.97-.07-9.65-.59-11.23-1.6-1.81-1.15-4.53-4.3-5.48-6.94-.49,1.39-.95,3.03-1.39,4.95-.1.43-.19.87-.27,1.33-1.13,8.99-3.17,19.71-5.76,30.17,2.76,8.96,7.15,17.78,13.04,26.21.85,1.21,1.85,2.33,2.81,3.41,1.61,1.8,3.27,3.65,4.3,6.02ZM755.68,290.23l-.13-.37c-.87-2.52-1.69-5.17-2.44-7.89l-.21-.75.75.2c2.29.61,4.94.96,7.85,1.04.44.01.89.02,1.33.02,25.09,0,45.19-19.7,47.01-46.37,1.36-19.96-6.26-39.83-23.32-60.74l-.2-.25.17-.27c.34-.53.74-.82,1.18-.85.76-.07,1.39.62,1.93,1.22.21.23.4.44.56.56,33.17,25,33.45,50.26,30.66,63.09-5.2,23.94-28.69,43.31-61.31,50.54-.97.22-2.15.47-3.47.74l-.38.08ZM754.19,282.47c.65,2.31,1.35,4.56,2.09,6.72,1.16-.24,2.2-.47,3.07-.66,32.27-7.16,55.5-26.26,60.63-49.86,2.74-12.62,2.44-37.49-30.33-62.19-.22-.17-.45-.41-.68-.67-.36-.4-.84-.97-1.2-.93-.11,0-.22.09-.31.19,17.05,20.99,24.68,40.98,23.3,61.09-1.86,27.15-22.34,47.21-47.9,47.21-.45,0-.9,0-1.36-.02-2.71-.08-5.11-.36-7.31-.88ZM812.91,290.03l-.36-.27c-2.95-2.2-5.62-4-7.93-5.36l-.6-.35.57-.4c5.75-3.98,10.61-8.12,14.46-12.3,19.03-20.71,27.66-58.67-10.64-97.46-6.1-6.18-11.36-10.4-15.63-12.55l-.82-.41.83-.39c8-3.8,16.67-7.69,25.76-11.56,3.24-1.43,6.07-2.78,8.66-4.12l.44-.22.16.03c5.1,1.11,10.22,2.27,15.22,3.44l.89.21-.72.57c-5.47,4.39-10.42,8.69-14.69,12.78l-.12.12h-.17c-1.65.07-3.56.12-5.29.08-.82-.02-2-.22-3.37-.45-4.24-.72-10.04-1.7-10.68,1.7-.53,2.85,1.65,6.82,6.67,12.14l.11.11h0s.3.31.3.31c3.34,3.49,7.31,6.98,10.81,10.05,3.04,2.67,5.67,4.98,7.16,6.66,22.97,25.84,22.48,52.45-1.45,79.09-2.37,2.64-5.31,5.09-8.43,7.67-3.96,3.29-8.05,6.69-10.86,10.52l-.27.36ZM805.67,283.99c2.1,1.27,4.47,2.88,7.05,4.79,2.86-3.77,6.86-7.1,10.74-10.32,3.09-2.57,6-4.99,8.33-7.58,11.67-12.99,17.79-26.04,18.17-38.76.39-13.05-5.23-26.22-16.72-39.14-1.46-1.64-4.07-3.93-7.09-6.58-3.41-3-7.27-6.38-10.57-9.8-.65.57-1.27,1.14-1.87,1.69,11.58,13.23,19.18,28.23,21.61,42.81,3.12,18.74-2.28,36.33-15.62,50.85-3.76,4.09-8.48,8.14-14.04,12.04ZM793.98,160.96c4.21,2.3,9.27,6.43,15.07,12.3,1.41,1.42,2.76,2.87,4.07,4.35.46-.63.96-1.31,1.5-2.02-5.04-5.41-7.21-9.55-6.64-12.64.8-4.27,7.1-3.2,11.71-2.42,1.33.23,2.48.42,3.24.44,1.64.04,3.47-.01,5.07-.07,4.08-3.89,8.76-7.97,13.91-12.13-4.66-1.09-9.42-2.16-14.16-3.2l-.15.08c-2.61,1.36-5.46,2.72-8.72,4.15-8.78,3.74-17.15,7.5-24.92,11.17ZM116.68,287.06c-3.71,0-7.32-.12-8.44-.21-6.67-.5-13.3-2.13-19.7-3.72-3.39-.84-6.9-1.71-10.35-2.38l-3.94-.78,21.26-.58c5.95-1.71,9.55-4.73,10.7-8.99,2.1-7.76-4.32-17.97-10.45-24.36-9.8-10.21-24.16-12.35-38.05-14.42-9.27-1.38-18.85-2.81-27.11-6.6-4.89-2.25-7.38-5.23-7.4-8.87-.04-7.39,10.23-15.33,15.73-17.94,2.09-.99,2.71-.83,3.02-.57l.32.26-.91,1.3c-2.87,4.08-5.34,7.6-3.88,12.92.27.98,3.21,6.11,3.75,6.54,2.02,1.55,11.39,4.13,18.79,5.87,3.65.86,7.01,1.43,10.26,1.98,9.48,1.6,17.66,2.99,27.06,10.79,9.34,7.75,22.05,29.59,26.79,39.56.12.25.28.57.47.95,1.38,2.73,3.7,7.29,1.71,8.51-.93.57-5.36.74-9.64.74ZM82.04,280.65c2.25.51,4.51,1.07,6.71,1.61,6.37,1.58,12.96,3.21,19.56,3.7,3.48.26,16.24.4,17.54-.4,1.29-.79-1.13-5.56-2.04-7.35-.19-.38-.36-.71-.48-.97-5.52-11.61-18.15-32.28-26.55-39.26-9.21-7.65-17.29-9.02-26.64-10.6-3.26-.55-6.64-1.12-10.32-1.99-2.71-.64-16.37-3.93-19.13-6.03-.79-.6-3.81-6.07-4.07-7.01-1.58-5.73,1.01-9.41,4.01-13.67l.22-.32c-2.71.7-13.2,7.26-16.07,14.46-1.91,4.78.18,8.61,6.19,11.38,8.14,3.74,17.66,5.16,26.87,6.53,14.04,2.09,28.55,4.25,38.56,14.69,6.29,6.56,12.86,17.1,10.67,25.22-1.24,4.59-5.07,7.83-11.37,9.63l-.11.02-13.55.37ZM677.85,286.85l-.28-.95c-2.3-7.68-4.06-15.64-5.26-23.65l.41-.28-.44.07c-.84-5.35-1.36-11.05-1.54-16.95l.89-.09c.83,4.55,3.43,9.43,5.95,14.16,3.53,6.63,6.86,12.89,5.6,18.21l-.44-.1.44.1c-.25,1.07-3.08,5.86-4.8,8.63l-.52.84ZM671.81,249.04c.25,4.45.71,8.76,1.35,12.86l.02.12c1.15,7.73,2.81,15.32,4.96,22.67,2.16-3.52,4.01-6.85,4.16-7.52,1.19-4.99-2.07-11.11-5.52-17.59-1.85-3.48-3.75-7.05-4.98-10.54ZM177.81,285.85c-1.96,0-8.33-5.61-8.4-5.67-5.97-5.28-11.08-10.69-15.2-16.1l-.15-.19.13-.36c1.04-2.66,1.93-5.42,2.66-8.21l.32-1.22.52,1.14c5.17,11.31,16.07,24.99,20.54,29.84l.3.33-.33.3c-.1.09-.23.13-.4.13ZM155.07,263.74c4.06,5.3,9.08,10.6,14.93,15.77,1.39,1.23,4.51,3.67,6.37,4.84-4.85-5.54-14.03-17.38-18.98-27.63-.66,2.38-1.44,4.74-2.32,7.01ZM886.26,284.95c-.33,0-.67-.07-.92-.27-.26-.21-.36-.53-.28-.89l.09-.19c9.82-11.87,14.98-25.86,14.16-38.36-.66-10.02-5.79-19.84-11.02-29.05l-13.54-.46c.05,2.15.54,4.34,1.02,6.46.43,1.89.87,3.83.99,5.76,1.46,22.17-17.75,41.18-32.33,53.56l-.46.4c-1.42,1.23-3.37,2.91-5.25,2.92h-1.07s.74-.76.74-.76c8.74-8.98,20.81-22.97,24.65-40.58,6.6-30.24-13.88-55.3-26.67-67.55l-.95-.91,1.31.15c6.2.69,12.49,4.55,18.04,7.96l1.04.64c18.63,11.4,48.12,34.83,53.01,52.67,2.46,8.98,1.43,16.81-1.07,26.47,2.44,1.79,4.95,1.42,7.61,1.02,1.51-.22,3.08-.45,4.72-.32l1.11.09-.86.7c-2.59,2.11-5.98,4.49-9.28,6.54l-2.42,1.51c-6.42,4.02-16.13,10.09-21.46,12.32-.19.08-.54.16-.91.16ZM885.95,284.03c.13.05.6.05.87-.07,5.27-2.2,14.94-8.25,21.34-12.25l2.42-1.51c2.88-1.79,5.83-3.84,8.24-5.72-1.13.02-2.24.19-3.32.35-2.8.41-5.7.84-8.52-1.38l-.23-.18.07-.28c2.51-9.66,3.58-17.42,1.15-26.3-4.83-17.59-34.11-40.82-52.62-52.14l-1.05-.64c-5.06-3.11-10.74-6.6-16.31-7.63,12.96,12.7,32.45,37.52,25.93,67.41-3.74,17.13-15.1,30.82-23.81,39.9,1.16-.53,2.34-1.55,3.27-2.35l.47-.4c14.43-12.25,33.46-31.06,32.02-52.82-.12-1.85-.56-3.77-.97-5.62-.52-2.32-1.07-4.72-1.04-7.12v-.46s14.97.51,14.97.51l.12.22c5.33,9.36,10.58,19.37,11.26,29.65.83,12.68-4.36,26.84-14.25,38.86ZM137.01,272.82l-.37-.83c-5.95-13.32-21.4-37.15-29.66-44.22h0c-12.56-10.75-25.14-13.14-39.71-15.9-5-.95-10.16-1.93-15.54-3.31l-.61-.16.35-.52c7.35-10.94,22.01-11.16,33.78-11.35l2.17-.04-.07.52c-.2,1.44-1.02,2.51-1.81,3.55-.91,1.19-1.76,2.31-1.81,4-.05,1.88,1.86,7.53,3.48,8.08,1.87.64,23.03.55,25.99.08,1.4-.22,6.28-2.4,7.15-3.19.88-.8,5.85-8.84,9.95-15.85l.36-.61.4.59c1.74,2.59,3.35,5.2,4.81,7.74l.12.22-.12.22c-11.83,21.77-10.54,43.7,3.84,65.16l.14.21-.11.23c-.71,1.5-1.49,3.04-2.32,4.58l-.43.8ZM107.56,227.09c8.17,6.99,23.28,30.17,29.52,43.71.62-1.18,1.21-2.36,1.76-3.51-14.39-21.63-15.69-43.71-3.86-65.66-1.3-2.26-2.73-4.57-4.25-6.87-3.36,5.71-8.69,14.47-9.76,15.44-1.07.97-6.17,3.18-7.61,3.41-3.14.5-24.41.56-26.42-.12-2.2-.75-4.14-6.91-4.09-8.95.05-1.97,1.04-3.26,1.99-4.51.64-.84,1.26-1.65,1.52-2.61l-1.09.02c-11.37.18-25.48.4-32.69,10.43,5.13,1.29,10.07,2.23,14.86,3.14,14.08,2.67,27.38,5.2,40.12,16.1ZM566.36,272.07c-1.06,0-2.12-.5-3.16-1.49-4.01-3.79-6.35-13.93-5.21-22.6h0c.27-1.79.7-6.21,1.36-12.89.61-6.15,1.43-14.57,2.52-24.86.48-4.36,1.14-10.16,1.92-16.42l.05-.42.42.03c8.46.59,13.68.12,15.99-1.43,5.37-3.62,4.09-10.06,2.86-16.28l-.25-1.28c-1.36-7.01-4.67-15.96-9.55-18.13l-.5-.22.32-.45c11.4-15.87,21.76-27.17,29.97-32.66,4.62-3.11,8.71-4.62,11.8-4.37,2.06.16,3.65,1.07,4.72,2.72,2.87,4.38,1.91,13.55-2.85,27.27-.24.74-.51,1.49-.8,2.24-.62,1.62-1.25,3.2-1.87,4.77l-.11.28h-4.95c-5.57-.02-11.33-.02-16.9-.17-3.6-.09-6.12.8-7.51,2.66-3.14,4.19-.39,12.74,1.62,18.98.61,1.89,1.18,3.67,1.51,5.08,1.76,7.5,3.14,15.35,4.11,23.31l.02.13-.05.12c-1.7,3.62-3.49,7.47-5.08,11.05-.13.29-.26.57-.4.85-6.38,12.54-13.09,33.42-14.09,43.83-.71,6.44-2.89,10.32-5.82,10.39-.02,0-.05,0-.07,0ZM558.87,248.1c-1.1,8.42,1.12,18.21,4.94,21.83.87.83,1.73,1.25,2.55,1.25.02,0,.03,0,.05,0,2.41-.05,4.3-3.73,4.95-9.59,1.03-10.67,7.65-31.3,14.18-44.14.13-.26.25-.53.38-.81,1.57-3.54,3.35-7.35,5.03-10.95-.96-7.89-2.33-15.65-4.08-23.09-.32-1.37-.89-3.14-1.49-5.01-2.07-6.43-4.9-15.23-1.48-19.79,1.58-2.11,4.38-3.12,8.25-3.02,5.56.15,11.31.16,16.87.16h4.35c.58-1.46,1.16-2.95,1.75-4.47.28-.74.55-1.48.79-2.21,5.81-16.74,4.81-23.65,2.94-26.49-.92-1.4-2.28-2.18-4.05-2.32-2.89-.24-6.79,1.23-11.23,4.23-7.93,5.31-18.37,16.67-29.43,32.02,6.35,3.39,9.09,15.99,9.58,18.54l.25,1.28c1.23,6.21,2.63,13.25-3.23,17.2-2.47,1.66-7.59,2.17-16.13,1.61-.76,6.09-1.39,11.73-1.87,15.99-1.09,10.28-1.91,18.7-2.52,24.85-.66,6.69-1.09,11.12-1.36,12.92ZM184.05,271.14l-.53-.64c-5.23-6.37-9.52-12.74-13.13-19.45l-.35-.66h19.67l-.14.56c-.28,1.07-.56,2.2-.86,3.38-1.21,4.76-2.57,10.16-4.4,16.02l-.25.79ZM171.54,251.28c3.38,6.2,7.37,12.1,12.15,18,1.7-5.52,2.99-10.64,4.14-15.17.25-.98.49-1.93.72-2.83h-17.01ZM590.04,269.16l-.31-3.32c-.46-4.88.09-9.52,1.49-12.73h0s1.5-3.4,1.5-3.4l-.28,2.78c-.46,4.58-1.08,9.09-1.83,13.38l-.57,3.28ZM591.13,256.27c-.34,1.42-.55,3-.63,4.68.23-1.54.44-3.1.63-4.68ZM763.15,269.04c-2.98,0-4.95-.59-6.17-1.78-2.24-2.21-1.69-6.17-.93-11.65.2-1.44.42-2.99.6-4.64.26-2.34.53-4.54.78-6.65,1.46-11.98,2.51-20.64-.75-34.27-1.2-4.99-3.88-11.8-7.56-19.18l-.1-.2.1-.2c2.71-5.53,8.27-11.35,13.85-14.49h0c.67-.38,1.35-.76,2.03-1.13l1.45-.81.23.31c.39.51.79,1.02,1.2,1.5,2.25,2.62,4.41,4.98,6.5,7.26,6.62,7.21,12.33,13.43,17.16,24.15,6.7,14.86,6.66,33.19-.09,45.63-4.71,8.68-12.44,14.08-22.36,15.61-2.32.36-4.28.54-5.94.54ZM750.01,190.66c3.66,7.37,6.33,14.17,7.53,19.18,3.3,13.79,2.24,22.51.77,34.59-.25,2.1-.52,4.3-.78,6.64-.18,1.65-.4,3.21-.6,4.66-.73,5.22-1.25,9,.67,10.89,1.65,1.62,5.25,1.94,11.34,1,9.63-1.49,17.14-6.73,21.71-15.15,6.62-12.2,6.64-30.22.06-44.84-4.77-10.59-10.44-16.76-17.01-23.92-2.1-2.29-4.27-4.65-6.52-7.28-.34-.4-.67-.81-1-1.23l-.77.43c-.67.37-1.35.75-2.01,1.13h0c-5.37,3.02-10.72,8.59-13.39,13.91ZM353.56,268.94l-.48-.08c-5.66-.94-16.42-.64-25.06-.4-4.76.13-8.87.24-11.41.14-2.05-.08-4.1-.34-6.27-.62-1.4-.18-2.84-.36-4.28-.49l-.41-.04v-.41c.02-6.49-.21-12.96-.71-19.23l-.04-.48h39.12c.84-.53,5.56-5.55,5.86-6.23.19-1.35-.07-4.83-.32-8.19-.17-2.33-.34-4.54-.35-6.01,0-1.65.17-3.16.32-4.49.5-4.34.83-7.21-4.7-10.67-9.33-1.62-19.18-1.01-28.71-.42-5.46.34-11.11.69-16.64.62h-.35s-.08-.34-.08-.34c-.89-3.59-1.9-7.23-3-10.82l-.04-.14,2.2-6.25.35.04c4.04.47,8.12.02,12.05-.42,2.29-.25,4.65-.52,6.99-.6,4.46-.16,9.47.04,14.32.24,2.68.11,5.46.22,8.14.27h.34s.08.34.08.34c.44,1.81.83,3.3,1.17,4.46.19-.12.38-.27.58-.44.67-.57,1.41-.87,2.2-.9,1.7-.04,3.57,1.22,5.19,3.59,2.35,3.42,3.98,8.76,4.37,14.28,1.28,17.53,1.13,35.43-.42,53.22l-.04.48ZM341.07,267.33c4.51,0,8.69.14,11.68.58,1.52-17.58,1.64-35.28.38-52.6-.38-5.37-1.95-10.54-4.22-13.84-1.45-2.11-3.03-3.26-4.43-3.2-.59.02-1.14.25-1.65.68-.43.37-.83.64-1.23.84l-.47.23-.15-.5c-.36-1.16-.78-2.74-1.27-4.71-2.58-.05-5.24-.16-7.81-.26-4.83-.19-9.82-.39-14.25-.24-2.3.08-4.65.34-6.92.59-3.87.43-7.88.87-11.9.46l-1.87,5.31c1.05,3.45,2.02,6.94,2.88,10.39,5.38.05,10.9-.29,16.23-.62,9.61-.59,19.55-1.2,29.01.45l.16.06c6.09,3.78,5.69,7.22,5.19,11.57-.16,1.37-.32,2.79-.32,4.39,0,1.44.17,3.63.34,5.95.25,3.41.52,6.94.3,8.45-.08.54-5.75,6.94-6.64,6.94h-38.24c.46,6.01.69,12.2.68,18.41,1.31.13,2.63.3,3.9.46,2.15.27,4.18.53,6.19.61,2.5.1,6.6-.01,11.35-.14,4.14-.11,8.75-.24,13.08-.24ZM298.25,267.64l-7.12-20.3h7.57l.05.39c.63,4.94,1.13,10.53,1.52,17.09.01.24.03.48.03.72l.05,1.87-.76.07c-.32.03-.65.06-.97.11l-.37.06ZM292.4,248.23l6.46,18.42c.19-.02.39-.04.58-.06l-.03-1.03c0-.24-.02-.47-.03-.7-.37-6.37-.85-11.81-1.46-16.64h-5.52ZM89.67,266.56c-8.98,0-20.61-1.09-29.9-5.67-2.14-1.06-8.89-5.27-10.5-6.65-.99-.84-1.94-2.31-2.85-3.73-.82-1.28-1.6-2.49-2.31-3.08-3.36-2.82-9.4-2.54-15.24-2.27-3.51.16-6.83.32-9.46-.21l-.19-.04-.1-.17c-2.6-4.29-5.16-8.92-5.34-14.23l-.03-.88,2.33,1.59c4.8,3.29,9.34,6.39,14.77,8.29,5.62,1.96,12.72,3.13,20.24,4.36,14.45,2.37,29.4,4.81,36.64,13.3.07.08,6.32,8.14,5.05,9.24l-.12.11h-.16c-.91.03-1.86.04-2.84.04ZM34.07,244.11c4.18,0,8.05.48,10.62,2.64.81.68,1.63,1.94,2.49,3.28.88,1.36,1.78,2.77,2.68,3.53,1.54,1.31,8.26,5.51,10.32,6.53,9.99,4.93,22.8,5.75,31.91,5.55-.4-1.44-4.05-6.74-5.03-7.89-7.02-8.24-21.81-10.66-36.1-13-7.56-1.24-14.7-2.41-20.39-4.4-5.54-1.93-10.34-5.22-14.98-8.4l-.85-.58c.41,4.67,2.7,8.84,5.06,12.73,2.5.46,5.68.31,9.05.16,1.75-.08,3.52-.16,5.23-.16ZM964.04,261.35l-.59-.67c9.78-10.31,14.17-29.66,9.58-42.25-.83-2.28-4.36-3-7.17-2.93-3.32.08-6.06,1.2-6.51,2.65-.46,1.48-.7,2.93-.95,4.47-.4,2.45-.81,4.97-2.18,7.75-3.19,6.52-13.37,17.7-18.7,22.22-.08.07-8.28,6.92-9.64,5.67l-.32-.3.29-.33c21.77-24.5,25.47-45.13,11.97-66.88-1.1-1.77-2.55-3.36-3.96-4.9-1.94-2.13-3.95-4.34-5.04-7.03l-.12-.29.23-.21c2.98-2.77,34.9,19.86,37.2,21.83,18.67,15.99,23.55,30.51,14.91,44.4-.43.69-1.23,1.56-2.07,2.48-1.18,1.29-2.52,2.75-3.09,3.98l-.14.17-13.71,10.17ZM966.2,214.6c3.03,0,6.72.91,7.67,3.53,4.28,11.76.92,29.27-7.3,40.24l10.56-7.83c.65-1.32,2-2.79,3.19-4.1.82-.89,1.58-1.73,1.97-2.35,8.36-13.45,3.55-27.59-14.73-43.25-5.17-4.43-31.7-21.96-35.62-21.96-.04,0-.08,0-.11,0,1.05,2.37,2.83,4.32,4.71,6.37,1.43,1.57,2.91,3.2,4.06,5.04,13.57,21.88,10.1,42.59-11.26,67.04,1.86-.95,5.96-4,7.62-5.41,5.33-4.53,15.44-15.74,18.47-21.94,1.3-2.66,1.71-5.12,2.1-7.5.25-1.5.5-3.05.98-4.59.67-2.16,4.17-3.21,7.34-3.28.12,0,.24,0,.36,0ZM145.8,250.19l-.57-1.37c-4.14-9.95-4.9-19.98-2.27-29.79l.39-1.46.47,1.44c2.1,6.5,3.23,12.92,3.35,19.08h0c0,.34,0,.68,0,1.01-.08,3.1-.44,6.35-1.07,9.64l-.28,1.46ZM143.44,220.8c-2,8.66-1.31,17.47,2.04,26.24.45-2.72.72-5.39.78-7.97.02-.33.02-.65,0-.96h0c-.11-5.59-1.06-11.41-2.83-17.3ZM745.18,244.03l-.54-3.17c-1.61-9.43-2.11-17.71-1.54-25.33l.22-2.95.66,2.89c1.75,7.7,2.32,15.69,1.69,23.75h0c-.04.53-.09,1.07-.15,1.62l-.34,3.19ZM743.81,219.08c-.18,5.53.19,11.43,1.12,17.87.31-6.04-.07-12.03-1.12-17.87ZM922.75,241.71l-.08-1.01c-1.17-14.54-10.77-29.58-29.33-45.97-8.59-7.59-40.06-30.76-50.36-32.69-2.75-.51-6.14-.52-8.8-.46l-1.39.03,1.12-.83c4.53-3.38,9.66-7.1,15.27-11.06l.17-.12.2.05c16.9,4.09,33.44,8.61,49.19,13.43l.29.09.03.3c.06.72.07,1.35.07,1.96.01,1.55.02,2.77.95,4.42,1.93,3.43,7.57,7.89,13.04,12.21,4.35,3.44,8.47,6.69,10.88,9.5,13.93,16.18,13.74,34.19-.53,49.42l-.69.74ZM836.29,160.67c2.25,0,4.73.1,6.86.5,10.91,2.04,42.69,25.74,50.79,32.89,18.32,16.18,27.99,31.1,29.53,45.56,13.24-14.7,13.2-31.95-.17-47.49-2.36-2.74-6.44-5.96-10.76-9.38-5.53-4.37-11.24-8.89-13.26-12.47-1.04-1.85-1.05-3.31-1.06-4.85,0-.51,0-1.03-.05-1.59-15.58-4.76-31.94-9.22-48.65-13.28-5.08,3.59-9.77,6.98-13.97,10.1.24,0,.49,0,.74,0ZM671.57,239.9l-.89-.09c.02-4.08.22-8.3.58-12.55l.03-.3.29-.09c.73-.22,1.39-.44,1.95-.67,5.23-2.12,8.61-5.69,10.06-10.64,2-6.82-.11-16.02-5.36-23.43l-.13-.18.06-.21c.6-1.97,1.25-3.98,2-6.15l.21-.61.5.41c6.39,5.34,10.87,11.2,12.93,16.96,5.2,14.51.4,26.34-13.15,32.44l-.18-.41.18.41c-1.57.71-3.03.96-4.32,1.18-2.5.43-4.15.71-4.77,3.92ZM672.13,227.64c-.27,3.25-.45,6.48-.52,9.64,1.06-1.57,2.72-1.86,4.57-2.18,1.24-.21,2.64-.45,4.11-1.11,13.07-5.89,17.69-17.31,12.67-31.33-1.96-5.46-6.16-11.04-12.16-16.16-.63,1.85-1.2,3.59-1.72,5.3,5.31,7.6,7.42,17,5.37,24.02-1.5,5.14-5.16,9.02-10.58,11.21-.51.21-1.09.41-1.74.61ZM159.07,238.55v-.75c0-3.32-.22-6.57-.65-9.67l-.11-.82.75.36c1.62.78,3.67,1.24,6.09,1.38,11.55.66,27.54.74,37.24-.58,9.66-1.31,16.25-6.38,21.39-16.44,3.43-6.73,6.25-16.13,3.86-22.34-1.09-2.83-3.18-4.85-6.21-6-6.86-2.62-32.31-2.24-40.95-.95-10.06,1.49-12.63,6.04-17.31,14.29l-.66,1.16c-2.37,4.18-5.31,9.64-6.91,14.87l-.4,1.31-.45-1.29c-1.13-3.27-2.54-6.65-4.18-10.04l-.11-.23.14-.21c4.3-6.48,10.14-12.93,17.35-19.17,5.53-4.79,9.87-8.55,17.55-9.24,12.21-1.11,37.72-2.09,49.91-1.07,4.06.34,6.67,1.4,7.99,3.26,1.99,2.79.89,7.06-.38,12l-.35,1.38c-2.88,11.37-9.48,27.69-16.06,35.55-3.03,3.63-6.49,6.35-10.56,8.32l-.11.05h-.12c-1.02-.1-2.21-.14-3.85-.13-1.49.01-3.03.03-4.56-.14-.8.11-1.69.17-2.71.19-.69,0-1.39,0-2.09-.02-.66-.01-1.29-.03-1.91-.02-3.4.03-5.09.55-6.72,3.69l-.13.24h-.28c-3.31-.06-6.73-.25-10.04-.44-6.78-.38-13.78-.78-20.36,0-1.12.13-2.32.53-3.46,1.16l-.66.36ZM159.41,228.79c.34,2.67.52,5.45.55,8.28,1.04-.49,2.11-.81,3.13-.93,6.65-.78,13.7-.38,20.51,0,3.21.18,6.52.37,9.73.43,1.79-3.28,3.82-3.89,7.37-3.92.63,0,1.27,0,1.9.02.74.02,1.43.03,2.11.02,1-.01,1.87-.07,2.64-.18h.06s.06,0,.06,0c1.49.16,3.02.15,4.5.14,1.61-.01,2.79.02,3.82.11,3.91-1.91,7.23-4.54,10.15-8.04,6.49-7.76,13.02-23.93,15.88-35.2l.36-1.39c1.21-4.72,2.26-8.8.52-11.26-1.16-1.63-3.56-2.57-7.33-2.88-12.15-1-37.58-.04-49.76,1.07-7.39.67-11.42,4.17-17.01,9-7.1,6.15-12.84,12.46-17.08,18.8,1.4,2.92,2.63,5.83,3.67,8.66,1.68-4.92,4.37-9.91,6.58-13.79l.66-1.15c4.65-8.22,7.46-13.17,17.95-14.73,7.64-1.13,34.03-1.81,41.4,1,3.28,1.25,5.55,3.44,6.73,6.52,3.14,8.16-2.19,19.72-3.9,23.06-5.21,10.21-12.22,15.59-22.07,16.92-9.76,1.33-25.83,1.25-37.42.59-2.19-.13-4.1-.51-5.69-1.14ZM447.96,238.31l-.8-1.05c-.9-1.17-1.79-2.35-2.65-3.53-5.8-7.91-5.8-8.54-5.8-8.82v-.18s9.04-9.6,9.04-9.6l.06,1.04c.04.72.07,1.44.07,2.17h0c.05,6.17.08,12.4.08,18.64v1.32ZM439.64,225.04c.2.43,1.14,2.11,5.58,8.16.6.82,1.22,1.64,1.84,2.46,0-5.79-.03-11.58-.08-17.31h0c0-.36-.01-.72-.02-1.08l-7.32,7.76ZM303.44,234.03l-.05-.38c-.39-2.72-.82-5.39-1.28-7.92l-.09-.51.51-.02c5.23-.21,10.88-.58,15.86-.9,12.7-.82,17.58-1.06,18.43-.21l.15.15-1.1,9.75-32.44.04ZM303.07,226.07c.4,2.27.79,4.65,1.14,7.07l30.86-.04.95-8.45c-1.45-.5-9.65.03-17.58.55-4.83.31-10.28.67-15.37.88ZM187.56,215.7h-18.39l.17-.57c1.84-6.15,8.2-19.63,15.17-19.63h30.46l-.03.47c-.4,7.58-5.7,18.49-14.59,19.28-3,.27-10.09.45-12.8.45ZM170.37,214.81h17.19c3.02,0,9.92-.2,12.72-.45,8.21-.73,13.17-10.75,13.75-17.97h-29.51c-5.94,0-11.99,11.68-14.14,18.42ZM647.39,215.26c-5.24,0-10.23-.15-13.61-.52l-.4-.04c-1.07-.1-1.21-.2-1.62-1.18l-.14-.34c-1.02-2.37-1.42-5.76-1.84-9.34-.41-3.53-.84-7.18-1.91-9.77l-.29-.69.75.08c4.22.44,9.08.17,13.79-.09,5.23-.29,10.64-.59,15.21.09,3.59.53,6.79,2.3,9.26,5.1l.15.18-.06.23c-1.29,5.24-2.35,10.45-3.14,15.47l-.06.35-.36.02c-4.47.28-10.24.45-15.73.45ZM628.95,194.42c.93,2.63,1.33,6.03,1.71,9.32.41,3.52.8,6.84,1.78,9.09l.15.35q.24.57.88.63l.41.04c6.77.73,20.13.61,28.83.09.78-4.87,1.8-9.9,3.04-14.96-2.31-2.55-5.26-4.15-8.57-4.64-4.48-.66-9.84-.37-15.03-.08-4.48.25-9.1.5-13.21.15ZM107.21,199.58c-.58,0-1.16-.04-1.75-.08-.88-.06-1.8-.13-2.77-.06l-.62.04.16-.6c.99-3.67.09-7.8-2.4-11.05-2.27-2.96-5.5-4.66-8.85-4.66h-17.73l11.89-3.63c3.25-.43,6.63-1.04,9.89-1.63,7.21-1.29,14.67-2.63,21.91-2.37h.2s.13.16.13.16c1.65,1.92,2.96,3.49,4.13,4.94l.48.59-.13.26c-2.87,5.72-8.49,14.95-9.71,16.17-1.58,1.59-3.17,1.92-4.82,1.92ZM103.52,198.52c.7,0,1.36.05,2.01.09,2.24.16,4.02.28,5.87-1.57,1.04-1.04,6.43-9.79,9.41-15.69l-.11-.14c-1.14-1.41-2.41-2.93-3.99-4.78-7.09-.23-14.42,1.09-21.52,2.36-3.26.59-6.64,1.19-9.9,1.63l-6.06,1.85h11.75c3.64,0,7.12,1.82,9.56,5.01,2.53,3.3,3.52,7.46,2.7,11.24.09,0,.19,0,.28,0ZM723.62,188.29l-.39-.83c-2.32-4.85-4.97-9.61-7.88-14.17l-.29-.45.5-.2c4.92-2.01,6.26.52,7.55,2.98.43.82.88,1.67,1.47,2.37.86,1.02,1.69,2.05,2.5,3.09l.18.23-.14.26c-1.05,1.92-2.09,3.9-3.08,5.9l-.41.82ZM716.39,173.28c2.66,4.19,5.09,8.55,7.25,12.98.83-1.64,1.68-3.27,2.55-4.86-.75-.95-1.51-1.9-2.3-2.83-.65-.77-1.12-1.67-1.58-2.53-1.21-2.29-2.17-4.12-5.92-2.76ZM670.75,184.83l-.48-.3c-3.71-2.3-8.02-3.71-13.18-4.31-4.18-.49-27.51-.73-36.59.11l-.7.06.24-.66c1.13-3.08,2.28-6.27,3.46-9.55l.1-.28h.3c8.07-.34,15.92-.57,23.23.17,7.6.77,16.78,4.13,25.16,9.22l.31.19-.12.34c-.54,1.48-1.05,2.97-1.55,4.47l-.18.54ZM639.5,178.89c7.97,0,15.49.19,17.7.45,5.08.59,9.36,1.95,13.07,4.15.41-1.21.82-2.41,1.25-3.61-8.19-4.92-17.09-8.16-24.47-8.91-7.16-.72-14.87-.51-22.8-.19-1.06,2.95-2.1,5.82-3.12,8.61,4.41-.35,11.56-.49,18.38-.49ZM601.75,184.59l-.29-1.32c-.99-4.58-2.01-8.71-3.1-12.63l-.17-.61.63.05c2.55.19,5.34.28,8.51.29h.68s-.27.62-.27.62c-1.72,4.03-3.5,8.07-5.44,12.37l-.56,1.23ZM599.39,171.01c.93,3.37,1.8,6.9,2.65,10.75,1.63-3.62,3.14-7.07,4.62-10.5-2.66-.02-5.05-.1-7.27-.24ZM289.83,183.02l-.19-.47c-.96-2.4-1.99-4.84-3.06-7.27l-.12-.27.2-.22c1.92-2.06,3.46-3.2,4.71-3.48l44.36-.9.06.38c.5,2.98,1.05,6.02,1.63,9.04l.1.52-42.22.74c-1.53.17-3.48.81-5.03,1.67l-.44.24ZM287.52,175.19c.96,2.19,1.89,4.4,2.77,6.57,1.57-.79,3.43-1.38,4.96-1.54l41.2-.73c-.52-2.73-1.01-5.47-1.47-8.16l-43.5.87c-.93.22-2.29,1.23-3.96,2.99ZM566.71,180.48c-.2,0-.41,0-.64,0h-.51s.07-.51.07-.51c.43-3.02.89-6.1,1.39-9.25l.39-2.46.52,2.27,1.86,9.29-.17.17c-.3.3-.93.49-2.92.49ZM566.59,179.58c1.37-.02,1.95-.09,2.22-.16l-1.26-6.28c-.34,2.18-.65,4.32-.96,6.44ZM735.25,168.36l-.37-.46c-1.68-2.09-3.27-3.83-4.73-5.17-4.82-4.42-13.35-4.78-18.99-5.01l-.86-.04c-.95-.05-2.19-.1-3.53-.13l-.85-.02,2.64-3.68c1.63-2.58,3.52-5.51,5.55-8.68,3.43-5.33,7.32-11.38,11.15-17.57l.15-.24.29.04c15.38,1.95,30.53,4.13,45.04,6.48l1.14.18-1.25.82c-8.76,5.73-21.99,14.4-35.03,33l-.34.49ZM707.63,156.67c1.02.03,1.95.07,2.71.11l.86.04c5.77.24,14.49.6,19.56,5.25,1.38,1.27,2.88,2.88,4.45,4.81,12.7-17.94,25.52-26.58,34.25-32.31-14.06-2.27-28.72-4.37-43.59-6.26-3.78,6.12-7.62,12.08-11.01,17.34-2.03,3.16-3.92,6.09-5.56,8.69l-1.67,2.32ZM677.74,166.86l-.42-.23c-15.67-8.32-33.96-9.99-48.14-10.52l-.61-.02.21-.58c3.43-9.55,7.14-19.81,10.97-30.08.74-2.04,1.47-4.06,2.18-6.06l.11-.32.34.03c5,.38,9.97.77,14.91,1.18,11.85,1,23.67,2.1,35.12,3.3l.39.04v.39c.11,2.77.53,4.96.94,6.75.6,2.43-.65,6.51-3.54,11.49-.64,1.11-1.27,2.22-1.89,3.32-3.68,6.59-7.17,13.62-10.36,20.87l-.19.44ZM629.82,155.25c14.06.55,31.98,2.28,47.49,10.38,3.15-7.13,6.58-14.02,10.21-20.51.62-1.11,1.25-2.22,1.9-3.34,2.73-4.71,3.98-8.65,3.44-10.83-.37-1.65-.81-3.85-.93-6.53-11.32-1.18-23-2.27-34.72-3.26-4.83-.4-9.69-.79-14.56-1.16-.67,1.9-1.36,3.81-2.07,5.74-3.75,10.07-7.38,20.12-10.76,29.5ZM281.15,161.66l-.15-.66c-.29-1.26-.48-2.41-.57-3.42-.33-3.8.7-6.19,2.88-6.74,2.34-.6,4.51-2,2.99-11.79-.83-4.32-2.66-8.84-4.05-11.87l-.25-.56.61-.07c17.08-2.09,34.37-3.93,51.39-5.46l.67-.06-.2.64c-2.22,7.13-2.67,15.89-1.46,28.4l.08.74c.03.24.05.48.07.72.17,1.74.39,3.66.64,5.72l.06.49h-.49c-.53.03-.96.04-1.38.05-4.55.06-9.63-.12-15.01-.32-9.75-.35-19.83-.71-27.59.36-2.47.34-5.06,1.49-7.68,3.42l-.55.4ZM283.32,127.37c1.37,3.05,3.07,7.36,3.87,11.53,1.47,9.51-.31,11.95-3.66,12.81-2.31.58-2.38,3.88-2.21,5.8.07.79.2,1.67.4,2.63,2.56-1.78,5.09-2.85,7.53-3.19,7.83-1.08,17.95-.72,27.74-.37,5.37.19,10.44.38,14.97.31.29,0,.58-.01.88-.02-.23-1.88-.43-3.65-.59-5.26-.02-.24-.04-.47-.06-.71l-.08-.74c-1.19-12.27-.79-20.99,1.3-28.12-16.59,1.5-33.44,3.29-50.1,5.32ZM475.25,160.11l-.36-.55c-.48-.73-1.05-1.39-1.71-1.95l-.34-.29.28-.34c5.21-6.21,11.39-13.44,17.87-20.91,1.47-1.79,2.68-3.54,3.7-5.36,1.81-3.23,4.2-5.06,6.42-5.02.99.02,1.93.38,2.78,1.08,2.75,2.24,4.25,7.64,4.02,14.44-.16,4.89-.09,9.83.2,14.7l.03.47-30.42.28-2.47,3.43ZM474.1,157.23c.43.4.82.84,1.18,1.32l1.99-2.76,29.93-.28c-.27-4.74-.33-9.56-.17-14.31.22-6.42-1.19-11.68-3.69-13.72-.7-.57-1.45-.87-2.23-.88-.02,0-.04,0-.06,0-1.91,0-3.93,1.66-5.56,4.56-1.04,1.86-2.28,3.66-3.8,5.5-6.37,7.34-12.44,14.45-17.59,20.57ZM511.24,156.37l.1-.53c2.05-11.13,4.08-25.1,6.01-41.51l.05-.4h.4c16.66.15,33.46.52,49.92,1.09l.55.02-.56,2.24c-.22.9-.44,1.81-.66,2.71-.66,2.75-1.31,5.52-1.94,8.33-1,4.42-2.7,8.85-4.81,12.46-2.82,4.88-5.42,9.9-7.73,14.95l-.12.26-41.23.38ZM518.19,114.82c-1.9,16-3.87,29.67-5.88,40.64l39.58-.37c2.29-4.98,4.87-9.95,7.65-14.77,2.06-3.54,3.73-7.88,4.71-12.21.63-2.81,1.28-5.6,1.94-8.35.22-.9.44-1.81.66-2.71l.29-1.17c-16.15-.56-32.61-.91-48.95-1.06ZM112.14,146.28l-.18-.27c-7.17-10.53-9.57-16.62-8.04-20.35.78-1.9,2.62-3.14,5.49-3.71h0c.81-.16,1.72-.25,2.7-.28,11.15-.8,30.72,7.36,41.39,12.3l1.83.83-1.27.3c-14.79,3.49-28.78,7.22-41.59,11.09l-.31.09ZM109.58,122.83h0c-2.59.51-4.17,1.55-4.83,3.17-1.75,4.28,3.18,12.48,7.77,19.24,12.38-3.73,25.85-7.33,40.07-10.71-8.85-4.07-29.29-12.78-40.43-11.97-.95.03-1.81.12-2.57.27Z"/>
</svg>