<?xml version="1.0" encoding="UTF-8"?>
<svg id="Layer_1" xmlns="http://www.w3.org/2000/svg" version="1.1" viewBox="0 0 1004.17 458.38">
  <!-- Generator: Adobe Illustrator 29.7.1, SVG Export Plug-In . SVG Version: 2.1.1 Build 8)  -->
  <defs>
    <style>
      .st0 {
        fill: none;
        stroke: #000;
        stroke-miterlimit: 10;
      }
    </style>
  </defs>
  <path class="st0" d="M934.71,297.51c18.23-2.43,60.23-36.35,65.19-54.78,6.39-23.76-1.24-38.45-18.46-53.29-25.66-22.12-69.69-38.56-115.76-50.59,27.26-18.53,60.38-39.64,92.82-60.01,26.32-17.41,38.05-26.04,42.19-30.01-1.95.58-3.84,1.14-5.51,1.65-6.83,2.06-14.43,4.4-21.89,6.67-43.12,13.13-81.91,26.09-115.47,38.78-8.02,3.03-15.87,6.09-23.36,9.11-7.56,3.05-13.45,4.51-16.41,3.95-.05-.01-.11-.02-.16-.03-2.89-.65-2.43-3.36,1.44-7.36,11.13-11.43,20.26-21.32,25.73-29.29-2.57,1.92-5.27,4-8.1,6.24-.17.14-.35.28-.53.42-6.59,5.13-13.09,10.43-19.63,16.02-9.92,8.47-19.39,17.15-28.05,25.65-.53.52-1.1,1.05-1.68,1.58-18.32-3.13-35.29-5.59-49.65-7.47-1.24-.16-2.49-.31-3.73-.47,5.16-9.1,9.48-17.83,11.48-24.65,2.95-11.95.02-17.98-3.53-24.36-1.21-2.19-2.49-4.46-3.6-7-.6-1.07-1.19-2.14-1.79-3.2-1.49-2.67-3.37-5.88-5.36-8.31-9.34,11.31-21.62,29.39-30.63,48.2,0,0-.39.84-.41.89-2.49,5.37-4.19,9.93-5.36,13.88-15.61-1.61-31.44-3.02-47.41-4.23,5.92-18.6,9.08-34.18,5.64-42.74-.02-.04-.03-.09-.05-.13-1.72-4.88-4.48-7.55-8.01-7.87-7.38-.69-21.04,9.83-38.12,27.37-3.1,3.2-6.2,6.51-9.27,9.85-3.61,3.93-7.13,6.07-9.83,5.89-.34-.02-.66-.08-.98-.18-2.77-.87-4.03-4.66-3.27-10.07.57-3.99.97-7.62,1.16-10.8,0-.08.01-.15.02-.23.32-4.39.27-7.62.04-9.93-4.74,9.17-9.23,21.99-12.91,34.65-17.31-.61-34.71-1-52.13-1.16,1.05-9.9,2.05-20.37,2.97-31.22.73-9.51.75-14.9.58-17.87-1.78,1.39-4.02,3.4-5.8,5.04-2.19,2-4.61,4.28-7.1,6.48-12.03,11.15-24,23.03-35.44,35.32-.74.79-1.46,1.58-2.19,2.37-5.79.08-11.59.19-17.37.32-.72-2.03-1.27-4.32-1.58-6.78-1.33-10.74-3.01-18.91-5.08-24.95-.02-.06-.26-.77-.28-.82-.97,3.33-2.02,8.8-2.5,17.06,0,.07,0,.15-.01.22-.32,4.97-.45,10.3-.49,15.54-28.61.81-57.03,2.23-85,4.28-1.13-4.44-2.41-8.67-3.82-12.51-.56-1.53-1.06-2.8-1.51-3.86-.71.6-1.61,1.5-2.71,2.84-.78.96-1.8,1.47-2.98,1.55-1.86.12-4.14-.84-6.63-2.83-4.06-3.26-8.18-8.83-10.93-14.78-2.1-4.57-3.93-7.98-5.4-10.48-.14.78-.26,1.71-.34,2.84-.43,8.4,2.58,22.32,7.02,39.45-19.85,1.76-39.42,3.84-58.62,6.24-2.19-2.12-3.98-2.33-10.44-2.22-.22,0-.44,0-.66.01-3.51.06-9.07-3.29-14.92-8.65-5.82-5.37-11.01-11.89-13.07-16.98-1.05-2.62-2.03-5.17-2.99-7.64-1.11-2.87-2.28-5.84-3.61-8.91-.03-.08-.07-.16-.1-.23-4.94-11.82-12.76-27.17-25.65-48.53-.04-.06-.07-.12-.11-.18-3.48-5.89-6.45-10.64-8.95-14.47-.12.02-.24.03-.36.05-6.34.75-13.23.04-19.88-.83-1.65-.22-3.51-.64-5.54-1.26-1.22-.37-2.44-.76-3.66-1.13-1.59-.49-3.63-1.12-4.92-1.47-.54,1.44.67,8.33,19.91,36.97,11.38,16.23,23.34,31.04,34.09,43.07.11.12.22.25.33.37,3.34,3.8,6.71,7.45,10.13,11.3.55.62,1.1,1.24,1.64,1.86,7.41,8.52,8.76,15.5,4.14,16.1-.14.02-.28.03-.43.04-1.31.06-2.46.16-3.52.29-3.81.5-6.2,1.57-7.09,3.15-.08.14-.17.27-.28.39-.65.77-.26,3.37.91,6.93-15.75,2.66-32.59,5.82-49.69,9.53-3.81-5.23-9.99-12.42-19.88-21.79-40.47-36.75-91.51-58.78-107.72-59.97-.33-.03-.66-.06-1.01-.1-4.13-.46-7.87-.36-11.05.28-26.42,4.99-4.33,38.06,35.62,74.75,9.48,9.09,19.25,18.27,28.47,27.37-28.61,9.81-54.03,21.63-71.44,35.75C7.46,199.61.53,210.12.97,230.04c.75,34.23,32.49,48.25,59.78,60.18,15.47,6.76,31.93,12.76,49.07,18.14-17.36,18.75-36.94,35.22-49.44,47.51-22.88,21.15-44.36,42.41-53.25,59.1-8.46,15.42-5.36,26.22,7.57,28.72,1.66.32,3.46.51,5.36.55,2.77-.16,10.39-.85,40.18-17.67,5.82-3.31,13.17-7.75,21.02-12.83,10.47-6.72,23.77-12.9,32.81-15.22,3.32-.84,5.81-1.09,7.47-.79,2.88.52,3.24,2.69.53,6.24-2.73,3.57-5.1,6.82-7.11,9.74,4.87-4.45,9.7-9.03,14.48-13.7,19.04-18.72,38.64-39.57,56.69-63.27,1.98-2.64,3.95-5.33,5.88-8.06,10.31,1.99,20.7,3.82,31.11,5.5-11.47,16.15-24.53,31.87-37.97,46.17-.16.17-.31.35-.48.53-23.16,25.39-50.05,54.66-59.22,73.75,3.72-3.25,8.05-7.33,11.93-11.07,5.15-4.94,10.33-10.04,15.52-14.93.39-.37.8-.75,1.23-1.12,3.46-3.09,13.93-12.42,27.05-19.53,4.64-2.48,12.89-6.54,18.49-5.75,1.65.23,2.78.81,3.88,1.38.18.09.36.18.54.28.23.11.43.24.61.4,3.35,2.87,8.84,5.1,14.18,5.79,1.91.25,3.73.3,5.4.15.26-.02.51-.04.76-.04,6.74-.07,13.81-1.57,20.21-4.33.68-.29,1.34-.55,1.97-.75.28-.12.92-.43,1.4-.67,3.25-1.57,9.09-4.5,13.51-4.02,2.32.25,3.98,1.43,4.97,3.5.08.18.16.36.22.56,1.18,3.8-.31,9.91-2.27,17.71-1.74,6.96-3.77,14.89-3.46,21.35v.16c.02.82.06,1.62.13,2.4,2.31-4.79,4.87-10.52,7.61-17.32,3.81-10.01,7.6-20.75,11.3-32.04,5.66-17.13,10.84-35.12,15.05-53.02,13.24,1.39,26.32,2.59,39.15,3.63-1.7,4.05-3.47,8.02-5.32,11.95-4.16,8.84-8.54,17.19-12.93,25.49-.06.11-.12.23-.18.34-22.5,40.57-7.8,45.41-1.32,45.83,1.18.09,2.39.04,3.49-.15.39-.07.78-.11,1.15-.12,20.93-.79,48.64-1.75,65.4-2.35.72-.06,1.45-.12,2.18-.17,2.25-.17,5.41-.41,7.33-1.24,2.92-9.26,4.65-33.08,5.27-42.46.07-1.08.15-2.15.22-3.23.5-9.94,1.08-19.68,1.52-29.09.01-.3.03-.6.04-.91,13.2.33,26.66.77,38.76,2.88-1.14,6.45-2.61,12.91-4.17,19.17-3.76,15.37-8.21,29.88-7.51,41.97,1.2,8.75,4.44,11.88,12.36,12.2,6.69.01,16.96.02,28.16,0,17.48-.03,31.54-.08,41.86.09.95-.04,1.9-.07,2.83-.1,4.98-.13,8.08-.39,8.95-2.56.95-2.06,1.86-9.91-2.92-38.08-.03-.17-.05-.33-.08-.49-1.35-8.08-3.28-19.51-5.21-31.02,14.96-.25,29.88-.63,44.8-1.15.4,9.72.52,18.8.54,27.74.04,4.83.07,9.39.18,14.03,0,.21.02.43.02.64.3,10.77,2.28,19.88,6.1,26.28,3.25,5.46,7.31,8.03,9.35,9.04.26.06.54.08.82.07,1.04-.06,3.13-.73,5.06-4.52.05-.1.11-.2.16-.3,4.33-7.16,3.33-32.08-3.91-54.82-.11-.34-.21-.68-.3-1.01-1.46-5.2-3.78-11.44-5.95-17.61,12.26-.49,24.53-1.05,36.84-1.74,7.02,13.62,14.18,26.5,21.52,38.36,17.62,27.83,28.56,39.62,38.91,44.11.2.09.87.39.88.39,0,0,.75.34.97.44.54.26,2.49,1.08,4.72.85,8.1-.83,7.94-12.85.6-31.81-8.02-16.44-24.86-35.12-39.23-54.1,17.19-1.19,34.71-2.65,52.41-4.43,5.03,14.48,6.04,22.98,6.27,30.66.29,5.24.53,10.23,2.67,17.25.04.15.09.29.12.44,0,0,.2.75.22.82,3.5,15.2,15.53,32.25,21.68,36.94,4.73,2.18,15.1,2.23,20.19,2.21,4.09,0,8.33-.02,12.82.35,3.66-.39,8.11-.04,12.47.28,4.66.34,9.12.65,12.66.12,6.83-.96,12.25-5.25-2.33-27.48-14.52-19.1-35.02-33.65-50.11-46.81-.67-.57-1.33-1.15-1.99-1.72-5.45-4.8-10.39-9.87-14.9-15.18,18.23-2.06,36.56-4.47,54.82-7.28,4.5,6.23,9.03,12.33,13.39,18.26,8.21,10.6,15.75,21.31,24.34,32.86,10.69,14.26,22.58,29.38,38.79,43.2,3.93,3.14,6.86,5.15,8.64,6.3,1.17.19,2.91.39,5.33.51,3.33.09,6.69.17,10.06.25,31.61.79,78.01.69,113.42.39,2.01-.11,4.04-.18,6.04-.26,4.18-.15,7.82-.3,10.11-.81,2.07-.46,4.04-1.35,2.89-4.36-1.27-5.33-19.89-20.36-76.84-54.8-.28-.17-.55-.35-.82-.52-17.77-11.42-42.85-26.55-62.03-39.98-7.67-5.25-14.43-10.23-20.22-14.67,18.22-4.06,36.09-8.6,53.42-13.67,17.51-5.12,25.4-9.04,44.36-11.56h.04ZM967.85,200.5c13.13,11.25,25.5,26.65,14.82,43.82-.99,1.6-4.17,4.33-5.19,6.51l-13.71,10.17c9.61-10.13,14.48-29.53,9.67-42.72-1.68-4.6-13.39-3.93-14.53-.26-1.21,3.91-.93,7.73-3.1,12.16-3.08,6.28-13.13,17.45-18.59,22.08-1.12.95-8.18,6.48-9.05,5.69,18.07-20.33,27.72-42.1,12.02-67.42-2.65-4.27-7.13-7.32-8.96-11.87,2.43-2.26,32.95,18.71,36.61,21.84h.01ZM898.59,163.51c.22,2.52-.29,4.14,1.07,6.56,3.49,6.2,18.48,15.4,23.97,21.78,13.56,15.75,13.7,33.64-.52,48.82-1.49-18.46-16.11-34.46-29.48-46.27-8.92-7.88-40.17-30.84-50.57-32.79-2.59-.48-5.7-.53-8.89-.47,4.68-3.5,9.79-7.19,15.26-11.05,16.52,4,32.93,8.45,49.16,13.42h0ZM771.99,320.45c-4.17-5.63-7.55-11.38-10.38-17.21,12.16-2.8,24.62-7.94,35.47-14.28,2.2,4.74,6.92,11.52,15.35,20.12,1.08,1.05,2.23,2.14,3.41,3.24-14.56,2.97-29.17,5.71-43.84,8.13h0ZM763.18,176.36c1.03-.59,2.09-1.16,3.13-1.75.39.52.8,1.03,1.22,1.52,9.3,10.86,17.26,17.25,23.6,31.31,9.85,21.85,6.15,56.26-22.11,60.62-16.74,2.58-13.33-4.36-11.93-17.04,1.72-15.59,3.88-24.94.02-41.07-1.24-5.19-4.05-12.16-7.6-19.28,2.66-5.43,8.14-11.19,13.67-14.3h0ZM745.23,239.18c-.04.53-.09,1.07-.15,1.61-1.31-7.65-2.21-16.3-1.53-25.22,1.7,7.49,2.33,15.34,1.68,23.62h0ZM723.63,187.27c-2.32-4.86-4.96-9.61-7.91-14.21,6.13-2.51,6.11,2.37,8.51,5.23.85,1.02,1.68,2.04,2.49,3.07-1.04,1.89-2.07,3.86-3.09,5.91ZM727.89,273.05c1.13,3.4,2.37,6.71,3.72,9.93,1.1,2.58,2.3,5.16,3.56,7.73-3.78-.96-6.59-3.01-7.2-6.89-.54-3.47-.48-7.09-.08-10.77h0ZM753.55,281.85c2.24.6,4.86.97,7.95,1.06,27.22.75,46.99-20.4,48.8-46.77,1.6-23.4-9.15-43.56-23.42-61.05,1.1-1.72,2.23.44,3.02,1.04,55.84,42.09,32.56,98.86-30.47,112.84-.97.21-2.14.47-3.46.74-.91-2.62-1.71-5.25-2.43-7.86h0ZM812.82,289.41c-2.96-2.2-5.65-4.02-7.97-5.39,5.64-3.9,10.61-8.09,14.53-12.37,28.61-31.14,16.3-70.78-10.65-98.07-3.76-3.81-9.99-9.74-15.75-12.64,8.79-4.17,17.52-8.05,25.74-11.56,3.16-1.39,6.02-2.75,8.69-4.14.1-.05.2-.1.29-.15,5.08,1.11,10.15,2.25,15.21,3.44-5.93,4.76-10.76,9.01-14.72,12.8-1.85.07-3.64.11-5.27.07-3.36-.08-13.56-3.4-14.5,1.62-.64,3.45,21.97,26.08,25.16,29.66,23.53,26.46,21.84,52.57-1.45,78.49-5.45,6.06-14.31,11.41-19.31,18.22v.02ZM770.66,134.31c-8.85,5.79-22.2,14.43-35.43,33.3-1.64-2.04-3.25-3.82-4.78-5.22-4.78-4.39-12.86-4.86-19.27-5.13-1-.04-2.6-.14-4.4-.17.63-.88,1.34-1.87,2.14-2.99,4.43-7.02,10.63-16.42,16.72-26.27,15.04,1.9,30.06,4.05,45.02,6.48h0ZM657.25,120.71c11.7.98,23.41,2.08,35.11,3.3.09,2.69.49,4.89.93,6.83.6,2.42-.79,6.51-3.49,11.16-.64,1.11-1.27,2.22-1.89,3.33-3.79,6.79-7.24,13.78-10.38,20.91-14.57-7.74-31.24-9.94-48.33-10.57,3.48-9.68,7.14-19.83,10.96-30.08.74-2.04,1.47-4.06,2.18-6.06,5,.38,9.97.77,14.91,1.18h0ZM612.54,311.59c-.83-1.56-1.78-3.51-2.8-5.66.75-.07,1.35-.14,1.74-.22,6.91-1.32,11.34-16.09,13.25-22.33,3.15-10.29,4.57-21.18,7.19-31.59l11.71.72c6.45,11.01,11.56,23.03,13.88,35.69.94,5.14-1.26,9.09,2.76,13.51,2.51,2.76,7.93,3.75,13.31,3.3,3.18,8.96,6.71,17.77,10.31,26.71-18.77,1.84-37.76,3.38-56.9,4.63-5.81-8.56-10.64-16.73-14.44-24.76h-.01ZM534.79,207.59c.82,28.39-.26,56.84-3.68,84.95l-8.56-.02c-.39-1.92.86-3.86.82-5.58-.71-30.47,3.04-66.77.24-96.62-.49-5.21-2.93-10.68-8.74-11.59-7.97-1.26-20.89,0-28.91.96v-10.17h60.6c-1.08,3.12-2.03,6.2-2.87,9.26-1.46.03-2.65.15-3.42.38-11.52,3.51-5.74,19.63-5.48,28.44h0ZM507.64,288.27c-4.12.05-6.22,7.7-5.82,22.75.4,8.93,1.28,19.15,2.54,29.35-14.16.02-28.3-.12-42.42-.41-.85-10.9.42-22,2.26-33.04,5.16.56,10.28.12,12.29-1.49,1.01-.81,4.23-5.91,4.33-7.37.12-1.9-2.18-21.09-2.77-22.56-.94-2.35-3.89-5.95-6.9-9.43.55-4.74.83-9.15.67-12.82v-.16c-.35-8.38-2.58-20.55-4.74-32.31-1.29-6.98-2.61-14.13-3.8-21.47l7.45-7.9c3.94-3.1,3.81.97,5.56,1.49h33.04c1.79,31.84.58,63.67-.68,95.52-.34-.09-.68-.15-1.01-.14h0ZM392.21,255.35c-.01,7.48,1.57,15.13,3.55,22.65-.39,3.45-.76,8.19-1.12,14.11l-3.23.41c-15.9-38.25-16.45-81.83-.86-120.32l1.5-1.55,7.49-.13c-2.05,7.01-4.46,15-5.82,22.13-1.29,6.75-5.01,28.78-3.19,34.15,1.09,3.21,10.56,2.73,12.83,1.41.44-.25,1.24-2.39,2.22-3.34,10.18-9.83,20.32-19.69,30.45-29.55.36,3.58,5.52,5.36,6.21,5.9l-19.07,19.87c-2.38,9.04,7.1,15.82,11.92,22.14,2.23,2.92,7.16,8.8,12.35,15.09-.04,5.69-.11,11.32-.19,16.86l-30.49-35.99c-2.33-1.89-7.09-2.19-9.86-1.26-1.77.59-11.85,15.3-14.7,17.42h0ZM507.67,155.95l-30.18.28s7.98-13.09,13.85-19.86c1.48-1.8,2.71-3.58,3.75-5.43,1.77-3.16,3.96-4.83,6.02-4.79.87.02,1.72.34,2.51.98,2.65,2.16,4.08,7.57,3.86,14.08-.17,5.34-.07,10.33.2,14.74h-.01ZM447.42,218.35c.05,6.17.08,12.4.08,18.64-.9-1.17-1.78-2.34-2.65-3.52-.98-1.34-5.71-7.8-5.72-8.55l8.21-8.71c.04.71.07,1.43.07,2.15h.01ZM569.31,179.67c-.3.3-1.5.39-3.24.36.43-3.02.89-6.09,1.39-9.24,0-.06.02-.11.03-.17l1.81,9.05h0ZM558.43,248.03c.52-3.45,1.62-16.33,3.88-37.76.55-4.93,1.18-10.47,1.92-16.41,6.6.46,13.34.47,16.27-1.5,6.01-4.05,4.05-11.55,2.79-18.02-1.05-5.41-4.15-15.93-9.81-18.46,11.78-16.4,22.11-27.37,29.86-32.55,4.6-3.1,8.56-4.54,11.52-4.3,6.26.48,8.73,8.53,1.49,29.39-.24.74-.51,1.49-.8,2.23-.62,1.62-1.24,3.2-1.86,4.76-7.23-.02-14.45.02-21.54-.17-16.43-.44-6.73,19.18-4.83,27.27,1.77,7.56,3.14,15.36,4.1,23.26-1.85,3.95-3.56,7.64-5.08,11.05-.13.29-.26.56-.39.83-6.65,13.08-13.15,33.76-14.14,43.98-.69,6.21-2.75,9.92-5.39,9.98-.93.02-1.92-.42-2.92-1.37-3.84-3.63-6.22-13.49-5.08-22.21h.01ZM670.51,184.16c-3.89-2.42-8.36-3.79-13.37-4.38-4.34-.51-27.85-.71-36.68.11,1.12-3.08,2.28-6.27,3.46-9.55,7.94-.32,15.83-.56,23.16.18,7.58.77,16.73,4.15,24.97,9.16-.54,1.49-1.05,2.98-1.55,4.48h.01ZM661.85,255.99c-3.74-7.86-9.32-17.31-14.81-18.32-2.89-.53-20.45-.61-23.13-.03-.4.09-4.88,4.95-5.31,6.06-2.8,7.26-3.6,21.12-5.87,29.71-.64,2.42-5.17,17.42-5.97,17.92l-3.92.08c-.93-1.86-1.84-3.57-2.69-5.02,5.86-22.71,7.97-46.37,6.45-69.81,1.99-5.18,4.12-10.81,6.44-16.99.08-.21.17-.42.25-.63.27-.69.55-1.41.83-2.12,1.76,8.84,5.11,19.42,4.52,25.51,3.76,4.05,4.08,6.49,10.16,7.13,7.15.75,21.43.89,32.64-.33-.64,9.17-.52,18.18.42,26.84h-.01ZM663.1,214.37c-8.12.51-22.05.71-29.26-.07-1.46-.16-1.24,0-1.8-1.3-2.02-4.68-1.59-13.88-3.75-19.1,8.95.94,20.35-1.28,28.97,0,3.63.54,6.73,2.38,8.99,4.96-1.27,5.16-2.34,10.34-3.15,15.51h0ZM601.9,183.17c-.92-4.25-1.94-8.47-3.11-12.65,2.79.21,5.65.29,8.54.29-1.86,4.34-3.67,8.45-5.44,12.36h.01ZM682.74,277.27c-.21.89-2.71,5.23-4.74,8.5-2.29-7.67-4.04-15.51-5.24-23.59-.01-.07-.02-.14-.03-.21-.87-5.51-1.36-11.16-1.53-16.89,1.98,10.84,13.68,23.21,11.55,32.19h0ZM680.47,234.39c-4.54,2.05-8.34.16-9.34,5.42.02-4.15.22-8.32.58-12.51.72-.21,1.39-.44,1.99-.68,15.12-6.12,12.76-23.65,4.89-34.74.63-2.06,1.3-4.11,2-6.14,5.91,4.93,10.62,10.7,12.79,16.77,5.01,14,.6,25.8-12.91,31.88h0ZM567.71,115.46c-.14.57-.29,1.14-.42,1.71-.22.9-.44,1.81-.66,2.71-.66,2.75-1.31,5.53-1.94,8.34-.99,4.4-2.7,8.8-4.76,12.34-2.94,5.08-5.5,10.07-7.75,14.99l-40.4.37c2.08-11.28,4.12-25.43,6.02-41.54,16.77.15,33.43.51,49.91,1.08ZM445.19,115.07c.05,2.6.1,5.06.15,7.27.12,5.39-.89,10.32-2.69,13.39-3.97,6.55-7.36,15.66-7.38,40.31l-28.61,28.03c.74-8.16,2.83-16.28,4.74-24.22,2.12-8.78,6.74-13.97,1.45-22.93-8.32-2.43-18.64-.2-27.51-.08-1.72,1.9-4.74,2.97-6.03,5.15-2.12,3.59-6.57,17.81-7.95,22.55-9.62,33.1-8.44,72.13,3.76,104.44,2.18,5.78,4.08,13.9,10.46,15.98,1.06.35,4.37.7,8.34.95-.42,8.96-.84,19.5-1.29,31.41-12.32-.69-24.59-1.49-36.76-2.42.68-8.06,1.84-17.72,3.51-29.34,1.04.07,2.08.14,3.11.23,7.89.3,8.74-6.98,7.1-13.3-.36-1.37-4.4-9.94-6.83-14.82,2.28-26.54,2.74-56.59-1.58-89.86,2.64-5.14,8.41-17.16,8.64-18.04,1.4-5.4.57-11.86-5.16-13.28.02-.11.04-.2.06-.31,1.51-9.15.73-23.13-1.64-36.99,27.24-1.98,54.71-3.34,82.13-4.11h-.02ZM290.08,328.65c-1.64-.19-3.28-.36-4.91-.56-15.06-1.76-30.08-3.83-45.07-6.17,4.54-8.52,10.58-19.18,16.26-31.86.03-.06.05-.11.07-.17,2-3.94,3.95-8.71,5.79-13.96,2.77,5.23,6.03,10.4,9.8,15.48,5.32,7.16,8.4,12.47,18.17,13.35,2.34.21,4.72.35,7.13.47-.37,2.05-.76,4.1-1.22,6.16-1.39,6.33-3.43,12.1-6.03,17.26h0ZM336.99,179.93l-41.69.73c-1.6.17-3.61.82-5.24,1.73-.97-2.42-2-4.85-3.07-7.28,1.67-1.79,3.24-3.07,4.48-3.35l43.88-.88c.52,3.09,1.08,6.14,1.64,9.05h0ZM298.31,247.79c.72,5.62,1.18,11.43,1.51,17.06.01.23.02.47.03.71.01.48.02.97.03,1.45-.45.04-.89.07-1.34.14l-6.79-19.35h6.56ZM305.4,247.79h38.73c.45,0,6.11-5.98,6.19-6.56.36-2.45-.63-10.73-.65-14.33-.03-6.77,3.03-10.81-4.66-15.58-14.74-2.58-30.28.36-45.51.17-.9-3.61-1.9-7.22-3-10.84l2.04-5.78c6.46.75,12.77-.8,19.11-1.01,6.89-.24,14.88.36,22.43.51.5,2.07.96,3.79,1.34,5.02.36-.18.74-.43,1.14-.77.59-.51,1.24-.77,1.92-.79,1.53-.05,3.24,1.11,4.81,3.4,2.26,3.3,3.91,8.54,4.29,14.06,1.23,16.89,1.2,34.65-.42,53.15-8.76-1.45-29.32.03-36.53-.26-3.39-.14-6.93-.79-10.53-1.11.02-6.39-.2-12.81-.71-19.26v-.02ZM303.82,233.59c-.38-2.64-.8-5.29-1.28-7.94,15.03-.61,32.75-2.44,33.96-1.24l-1.03,9.14-31.65.04h0ZM332.56,150.12c.03.25.05.49.08.74.03.24.05.48.06.71.18,1.85.4,3.77.64,5.74-.46,0-.92.03-1.37.03-12.84.17-30.6-1.61-42.65.05-2.76.38-5.4,1.68-7.88,3.5-.27-1.18-.47-2.31-.56-3.35-.3-3.51.58-5.78,2.55-6.27,3.07-.79,4.76-3.03,3.33-12.29-.73-3.8-2.29-8.06-4.09-11.98,16.95-2.08,34.09-3.9,51.37-5.46-2.41,7.73-2.62,16.84-1.48,28.58h0ZM288.92,290.28c-1.57-3.86-4.85-6.29-7.18-9.62-5.93-8.49-10.34-17.36-13.13-26.46,2.62-10.6,4.66-21.34,5.78-30.26.08-.47.17-.92.27-1.35.58-2.55,1.22-4.67,1.94-6.38.16,2.69,3.61,6.81,5.61,8.09,1.7,1.08,5.93,1.49,11.31,1.53.83,2.39,1.59,5,2.26,7.77l-11.59.02c-13.31,2.11-5.35,22.3-2.62,29.95,2.83,7.93,4.88,17.74,14.88,18.66h3.34c-.11,2.73-.29,5.48-.53,8.25l-10.34-.2ZM305.26,286.87c.13-1.54.23-3.09.33-4.64l43.5.05,1.91,4.79c-.21,1.46-.42,2.91-.64,4.37l-45.46-.87c.12-1.24.26-2.48.36-3.71h0ZM109.49,122.39c.79-.15,1.67-.25,2.62-.27,10.28-.74,28.39,6.34,41.19,12.26.22.1.43.2.64.29-14.02,3.31-28.05,7-41.62,11.09-8.61-12.64-12.27-21.52-2.84-23.37h0ZM85.19,179.98c10.34-1.37,21.22-4.37,31.72-3.99,1.42,1.65,2.81,3.3,4.13,4.93.1.12.19.24.29.37-2.89,5.77-8.5,14.92-9.63,16.06-2.79,2.79-5.52,1.42-9.04,1.64,2.03-7.57-3.84-16.27-11.69-16.27h-14.74l8.96-2.74h0ZM59.97,260.49c-2.03-1-8.81-5.23-10.41-6.59-1.83-1.55-3.59-5.49-5.16-6.81-5.56-4.66-17.94-1.19-24.89-2.57-2.61-4.29-5.1-8.82-5.28-14.02,5.27,3.58,10.37,7.3,16.48,9.44,16.4,5.73,45.81,4.76,56.69,17.53.8.94,5.81,7.99,5.1,8.61-10.58.27-22.93-.86-32.53-5.59ZM78.28,280.31l17.31-.47c19.48-5.56,10.36-23.83.5-34.11-16.44-17.14-44.68-11.65-65.29-21.12-20.32-9.34,9.02-28.17,10.88-26.63-3.18,4.57-6.25,8.31-4.61,14.25.27.98,3.28,6.29,3.91,6.77,2.56,1.95,15.11,5.05,18.96,5.95,14.43,3.4,24.66,2.32,37.14,12.68,8.87,7.37,21.57,28.66,26.67,39.41.89,1.87,4.25,7.72,2.35,8.89-1.52.94-14.97.68-17.81.47-10.17-.76-20.07-4.14-30-6.1h0ZM107.27,227.43c-17.06-14.6-34.68-13.98-55.43-19.3,7.56-11.25,22.91-10.96,35.07-11.18-.4,2.88-3.53,4.21-3.62,7.59-.05,1.97,1.85,7.86,3.78,8.51,1.94.66,23.31.56,26.21.1,1.42-.22,6.41-2.41,7.38-3.3.97-.88,6.08-9.2,10.04-15.95,1.74,2.59,3.33,5.16,4.79,7.71-11.43,21.04-11.14,43.23,3.86,65.63-.72,1.53-1.49,3.05-2.31,4.56-5.84-13.07-21.4-37.2-29.78-44.38h.01ZM194.69,303.41c-.04.13-.08.26-.12.39-.08.26-.18.53-.28.81-.92,2.49-2.2,5.39-3.73,8.5-19.31-3.86-38.52-8.21-57.57-13.03.94-1.21,1.86-2.43,2.77-3.66.33-.24.67-.5.99-.83,1.81-1.81,2.92-3.63,3.55-5.48,2.73-3.94,5.26-7.92,7.53-11.94.19.21.36.43.55.64,3.65,4.06,17.03,16.92,24.87,21.33,0,.08-.02.16-.03.23.07-.04.14-.09.22-.13,1.6.88,2.96,1.41,3.94,1.41h17.73c-.06.31-.13.63-.21.96-.06.26-.14.52-.22.79h0ZM154.61,263.69c1.07-2.75,1.96-5.51,2.67-8.26,5.06,11.08,15.75,24.67,20.62,29.96-.71.65-7.22-4.69-8.2-5.55-6-5.3-11.05-10.65-15.14-16.04,0-.04.03-.08.05-.12h0ZM183.87,270.21c-4.94-6.02-9.34-12.4-13.09-19.38h18.34c-1.36,5.28-2.97,12.05-5.26,19.38h0ZM215.86,233.2c-1.15-.11-2.44-.13-3.89-.12-1.5,0-3.04.02-4.56-.14-.8.12-1.68.18-2.7.19-.68,0-1.38,0-2.08-.02-.64,0-1.28-.03-1.93-.02-3.45.03-5.37.58-7.11,3.93-10.08-.16-20.61-1.59-30.45-.44-1.23.14-2.48.58-3.63,1.21,0-3.25-.21-6.5-.65-9.73,1.61.77,3.65,1.27,6.26,1.42,10.48.6,27.14.8,37.33-.58,10.55-1.43,17.01-7.44,21.73-16.68,4.42-8.66,9.2-24.47-2.59-28.96-7.1-2.7-32.98-2.2-41.18-.98-10.74,1.6-13.14,6.62-18.28,15.67-2.34,4.11-5.32,9.66-6.95,14.96-1.17-3.39-2.58-6.75-4.2-10.09,4.24-6.39,9.96-12.75,17.27-19.08,5.55-4.8,9.75-8.45,17.3-9.14,12.27-1.12,37.76-2.07,49.84-1.07,11.37.94,9.06,7.36,6.86,16.08-2.66,10.51-9.07,27.13-15.97,35.38-3.15,3.76-6.65,6.38-10.41,8.21h-.01ZM169.77,215.25c1.72-5.76,8-19.32,14.74-19.32h29.99c-.41,7.77-5.69,18.11-14.18,18.86-2.9.26-9.89.45-12.76.45h-17.79ZM146.71,238.09v.99c-.08,3.2-.45,6.39-1.07,9.57-4.07-9.79-4.89-19.65-2.25-29.51,2.07,6.41,3.21,12.71,3.33,18.95h0ZM168.79,340.44c-3.11,2.09-6.47,4.33-10.16,6.69-16.72,10.95-42.18,24.33-59.39,26.38-3.68.53-6.8.54-9.22.05-15.21-2.93-.08-23.48,23.57-49.75,3.1-3.72,6.32-7.54,9.56-11.45,19.28,5.56,39.3,10.36,59.69,14.5-2.8,4.41-7.98,9.52-14.05,13.58h0ZM201.04,315.16c9.03-14.47,16.6-30.03,20.57-46.53.43-1.85.82-3.69,1.14-5.5,1.14-6.19,1.51-12.14,1.28-17.04,17.47-10.75,28.18-37.32,32.44-54.43,4.46-17.9-.2-30.64-20.08-32.35-13.16-1.13-37.28.06-50.91,1.01-13.5.95-19.99,6.27-29.43,15.3-4.77,4.56-8.97,9.2-12.6,13.91-2.05-3.26-4.2-6.5-6.41-9.68,1.01-6.08-.3-12.61-6.21-15.62l-5.97-1.21c-1.24-1.67-2.46-3.31-3.65-4.91,23.19-5.72,46.21-12.22,69.69-16.77,11.28-2.19,22.75-4.21,34.34-6.12,2.2,4.01,4.78,8.05,7.58,11.58.05.06.54.69.54.69.33.41.64.83.95,1.24,1.39,1.88,4.8,3.5,7.31,3.98,3.01.58,7.14,3.48,10.79,7.84,3.66,4.36,6.36,9.64,7.38,14.18.91,3.97,1.7,7.96,2.4,11.97-13.87,26.84-15.13,54.55-3.95,80.9-5.23,17.01-14.43,35.14-25.97,53.08-10.44-1.7-20.85-3.54-31.24-5.52h.01ZM280.74,342.14c-10.83,11.34-18.9,10.48-21.27,10.21-1.37-.15-2.62-.43-3.71-.68-.85-.19-1.65-.37-2.3-.45-.21-.02-.36-.03-.45-.03-.82.2-1.57.27-2.21.2-.38-.04-.72-.13-1.02-.27-.64-.07-2.32.19-3.81.42-2.71.42-5.81.89-8.53.55-6.89-.84-7.68-6.61-3.97-16.3,15.81,2.4,31.64,4.49,47.33,6.29-.02.02-.03.04-.05.06h-.01ZM298.81,329.64c1.68-8.18,3.12-16.28,4.27-24.21,14.6.32,30.05-.56,44.86-.33-.34,1.73-.69,3.46-1.06,5.2-.04.2-.09.4-.13.6-1.86,8.06-4.1,15.56-6.61,22.72-13.91-1.18-27.69-2.51-41.33-3.99h0ZM391.81,358.41c-.22,6.47-2.62,13.75-6.36,18.62-2.64,3.46-5.58,5.25-8.01,5.13-.99-.05-1.9-.41-2.67-1.12-1.59-1.45-3.61-2.34-5.73-3.28-9.22-3.63-14.05-9.12-13.9-28.9,8.33.59,16.53,1.12,24.56,1.59,4.02.24,8.18.39,12.4.51-.1,2.51-.2,4.98-.28,7.43v.02ZM402.46,321.17c-.03-5.04.96-10.51,2.61-14.97,3.85-.06,6.92-.34,7.65-.97,4.43-3.82,2.62-10.6.58-16.57.15-1.26.24-2.49.23-3.62-.18-5.78-1.31-9.01-3.58-13.64-.63-1.28-1.36-2.38-2.16-3.29-.64-3-1.09-5.58-1.03-6.65.11-2.06,3.04-5,4.46-6.53l35.45,41.6c-.69,16.03-1.93,30.25-3.75,42.96-13.62-.41-27.19-.96-40.69-1.66.18-5.86.26-11.45.22-16.66h.01ZM508.22,364.78c1.2,6.08.94,12.22-.92,16.22-1.27,2.75-3.16,4.22-5.27,4.27-.96.02-1.95-.26-2.95-.85-1.65-.97-3.65-1.53-5.75-2.12-1.58-.45-3.2-.91-4.87-1.6-4.59-1.46-17.32-7.17-23.43-25.02,13.9.01,27.72-.08,41.49-.27.53,3.21,1.1,6.35,1.7,9.37ZM512.25,340.35c-1.73-10.38-3.23-19.54-4-24.69-.07-.37-.13-.75-.18-1.13-1.08-7.43-.29-12.42.51-15.29v-.02c1.29,4.15,3.5,7.12,8.32,7.59,7.63.74,24.8,1.93,27.57-7.12,4.64-32.26,5.52-64.93,3.99-97.46.45.34.89.78,1.29,1.39,1.99,2.99,2.93,8.78,2.65,15.12-1.72,38.7,1.55,72.54,4.59,100.79,0,.06.01.13.02.19.75,7.02,1.31,13.59,1.74,19.84-15.47.45-30.99.71-46.5.79h0ZM567.04,339.29c-.4-1.48-.78-2.95-1.1-4.4-.15-.68-.28-1.35-.4-2.02-1.8-11.09.52-16.26,3.03-22.21,0,0,.51-1.2.53-1.23.98-2.24,2.27-5.42,3.75-9.19.85-2.17,2.11-3.25,3.56-3.3,2.22-.09,4.85,2.22,7.33,6.65,4.32,7.72,8.65,15.97,12.94,24.55.13.25.25.51.38.77,1.44,3.01,2.89,5.99,4.34,8.94-11.41.59-22.87,1.06-34.35,1.44h-.01ZM742.51,324.91c-14.39,1.95-28.96,3.7-43.69,5.28-5.91-8.82-10.86-18.22-15.02-28.16,1.18-.71,2.16-1.53,2.86-2.46,1.02-5.23,9.89-14.52,10.72-18.75,2.14-10.93-6.38-24.1-10.1-33.95,27.31-13,28.57-42.92,10.09-64.62-3.47-4.08-7.19-7.52-11.1-10.45,2.27-3.96,5.35-7.65,8.59-10.21.2-.16.4-.3.6-.45-2.85,8.49,2.8,10.6,6.85,17.2,12.16,19.82,19.51,37.86,17.45,61.82-1.25,14.53-10.04,37.04-4.57,51.37.48,1.25,6.23,9.45,6.9,9.87.43.27,8.5,2.8,9.66,3.05,3.6.77,7.46,1.12,11.48,1.1,3.53,5.95,7.35,11.84,11.31,17.64-4.01.59-8.01,1.19-12.03,1.73h0ZM878.23,359.38c3.92,2.49,7.94,5,12.08,7.51,6.34,3.84,9.89,7.12,9.3,8.92-.19.59-.81.99-1.81,1.22-2.06.47-5.77.16-10.59-.96-2.16-.5-5.55-.87-8.5-1.2-2.94-.33-6.22-.71-9.98-1.39-30.53-4.16-64.38-21.41-81.1-36.17-.25-.22-.5-.43-.75-.65-1.28-1.14-2.49-2.28-3.68-3.43,15.6-2.65,31.1-5.6,46.37-8.88,13.06,10.82,29.5,22.92,48.66,35.04h0ZM877.3,271.65c-3.48,5.22-23.79,22.53-20.21,27.92,2.49,1.07,4.97.03,7.5.03,1.19,0,3.85-.69,3.6,1.05-15.26,3.68-30.58,7.15-45.97,10.37-1.92-1.58-3.55-2.94-4.85-4.01-.54-.44-1.06-.88-1.55-1.32-1.54-1.4-2.77-2.64-3.77-3.77,4.75.29,13.58-1.1,15.99-1.25,4.11-.25,8.82,1.1,13.68-.55,1.75-.59,11.65-7.94,13.74-9.64,10.62-8.64,21.13-20.39,27.47-32.52.77,4.09-3.34,10.25-5.65,13.71l.02-.02ZM885.5,283.88c8.66-10.47,15.18-24.69,14.26-38.68-.69-10.48-6.19-20.66-11.2-29.46l-14.25-.48c-.04,4.27,1.74,8.51,2.02,12.71,1.43,21.62-16.98,40.29-32.17,53.19-1.42,1.21-3.51,3.2-5.42,3.21,11.17-11.48,21.27-24.75,24.77-40.8,5.72-26.22-8.47-50.42-26.8-67.96,6.5.72,13.3,5.11,18.9,8.54,16.16,9.89,47.7,33.75,52.82,52.4,2.55,9.3,1.22,17.44-1.15,26.53,4.08,3.22,8.2.59,12.79.98-2.76,2.24-6.21,4.63-9.24,6.51-6.04,3.76-17.79,11.28-23.82,13.8-.46.19-1.66.26-1.5-.49h-.01Z"/>
</svg>